<svg width="96" height="35" viewBox="0 0 96 35" fill="none" xmlns="http://www.w3.org/2000/svg">
<g clip-path="url(#clip0_14_1989)">
<path d="M9.41976 20.14C7.66421 20.1838 5.93168 19.7333 4.41976 18.84C3.02027 17.9729 1.89379 16.7286 1.16976 15.25C0.377782 13.6394 -0.0230737 11.8647 -0.000236887 10.07C-0.0312809 8.27787 0.359213 6.50352 1.13976 4.89C1.86123 3.4123 2.98851 2.17056 4.38976 1.31C5.90934 0.407719 7.65311 -0.0464231 9.41976 -7.07339e-07C10.1855 -0.00491336 10.9454 0.134168 11.6598 0.409999C12.3488 0.684955 12.9849 1.07745 13.5398 1.57L15.6298 0.259999H16.0798V6H15.5398C15.2487 5.00165 14.7997 4.05635 14.2098 3.2C13.6912 2.43244 13.0079 1.79018 12.2098 1.32C11.4409 0.875994 10.5676 0.644738 9.67976 0.649999C8.79969 0.624274 7.93775 0.903345 7.23976 1.44C6.54808 2.01305 6.00875 2.74819 5.66976 3.58C5.26059 4.53925 4.97821 5.54775 4.82976 6.58C4.65947 7.72875 4.57591 8.8887 4.57976 10.05C4.57624 11.2113 4.65981 12.3712 4.82976 13.52C4.98052 14.5518 5.26281 15.56 5.66976 16.52C6.00448 17.3655 6.54397 18.1146 7.23976 18.7C7.93538 19.2412 8.79898 19.5208 9.67976 19.49C10.4726 19.508 11.2611 19.3686 11.9998 19.08C12.6454 18.8122 13.233 18.4217 13.7298 17.93C14.2369 17.4273 14.6651 16.8508 14.9998 16.22C15.3587 15.5483 15.6469 14.8412 15.8598 14.11H16.3998V19.88H15.9298L13.9398 18.5C13.3526 19.0221 12.6748 19.4323 11.9398 19.71C11.1329 20.0053 10.2789 20.151 9.41976 20.14V20.14Z" fill="white"/>
<path d="M21.6895 20.14C20.7169 20.1871 19.7604 19.8778 18.9995 19.27C18.6689 18.9749 18.4077 18.6102 18.2348 18.2022C18.0619 17.7941 17.9816 17.3528 17.9995 16.91C17.9859 16.3579 18.1196 15.8122 18.3867 15.3289C18.6538 14.8456 19.0448 14.4422 19.5195 14.16C20.8256 13.4168 22.3196 13.0694 23.8195 13.16H26.9195V13.6H24.6295C24.0617 13.5738 23.5005 13.7316 23.0295 14.05C22.6447 14.3365 22.3469 14.7242 22.1695 15.17C21.9959 15.5887 21.9042 16.0368 21.8995 16.49C21.8944 16.8752 21.9449 17.2592 22.0495 17.63C22.1431 17.9388 22.3154 18.2179 22.5495 18.44C22.7883 18.6446 23.0953 18.7517 23.4095 18.74C23.7988 18.7373 24.1758 18.6034 24.4795 18.36C24.8622 18.0447 25.1554 17.6343 25.3295 17.17C25.5639 16.5299 25.6758 15.8514 25.6595 15.17H25.9995C26.0236 16.0819 25.8424 16.9875 25.4695 17.82C25.1537 18.5192 24.6434 19.1128 23.9995 19.53C23.3051 19.9532 22.5024 20.1652 21.6895 20.14V20.14ZM28.6095 20.14C28.096 20.1489 27.585 20.0677 27.0995 19.9C26.6814 19.7573 26.3157 19.4926 26.0495 19.14C25.7756 18.756 25.6383 18.2912 25.6595 17.82V11.92C25.6616 11.3121 25.6013 10.7056 25.4795 10.11C25.3796 9.57983 25.1337 9.08807 24.7695 8.69C24.5626 8.49102 24.3153 8.33892 24.0444 8.24402C23.7735 8.14911 23.4854 8.11364 23.1995 8.14C22.7967 8.14312 22.395 8.18329 21.9995 8.26C21.581 8.3418 21.1744 8.4762 20.7895 8.66C20.4339 8.82539 20.1197 9.06793 19.8695 9.37C19.6259 9.67239 19.4983 10.0518 19.5095 10.44H18.8995C18.8933 10.1855 18.946 9.93301 19.0536 9.70228C19.1611 9.47155 19.3206 9.26883 19.5195 9.11C19.9351 8.76789 20.4617 8.59 20.9995 8.61C21.531 8.60105 22.0519 8.75838 22.4895 9.06C22.7009 9.20924 22.8712 9.40932 22.9848 9.64177C23.0984 9.87422 23.1516 10.1316 23.1395 10.39C23.1553 10.6589 23.1042 10.9275 22.9908 11.1718C22.8773 11.4161 22.7051 11.6285 22.4895 11.79C22.0577 12.1067 21.535 12.2751 20.9995 12.27C20.4602 12.2907 19.9314 12.1168 19.5095 11.78C19.3135 11.6181 19.1581 11.4126 19.0556 11.18C18.9532 10.9473 18.9066 10.6939 18.9195 10.44C18.9071 9.98202 19.0597 9.53483 19.3495 9.18C19.6564 8.80081 20.0512 8.50218 20.4995 8.31C21.0052 8.07171 21.5397 7.90027 22.0895 7.8C22.6767 7.69177 23.2725 7.63821 23.8695 7.64C24.9409 7.60112 26.0081 7.79207 26.9995 8.2C27.7328 8.49847 28.3453 9.03349 28.7395 9.72C29.1072 10.3941 29.2932 11.1523 29.2795 11.92V18.19C29.2702 18.4517 29.3325 18.711 29.4595 18.94C29.5301 19.0472 29.6294 19.1322 29.7462 19.1853C29.863 19.2384 29.9924 19.2573 30.1195 19.24C30.3966 19.2244 30.6651 19.1384 30.8995 18.99C31.2088 18.8067 31.4561 18.5351 31.6095 18.21L31.9195 18.54C31.6436 19.0634 31.1999 19.479 30.6595 19.72C30.0156 20.0097 29.3155 20.1531 28.6095 20.14Z" fill="white"/>
<path d="M37.37 7.85V19.37H39.37V19.88H32V19.37H33.77V8.37H32V7.85H37.37ZM37.07 14.31C37.0689 13.4614 37.1459 12.6145 37.3 11.78C37.4302 11.037 37.6659 10.3164 38 9.64C38.2772 9.05007 38.6963 8.53811 39.22 8.15C39.7399 7.78241 40.3633 7.58978 41 7.6C41.5478 7.57944 42.0897 7.7184 42.56 8C42.9619 8.23741 43.2879 8.58424 43.5 9C43.7075 9.39495 43.8172 9.83388 43.82 10.28C43.8308 10.8643 43.6159 11.4302 43.22 11.86C43.025 12.0793 42.7842 12.253 42.5146 12.3687C42.245 12.4845 41.9533 12.5396 41.66 12.53C41.3737 12.5411 41.0881 12.4946 40.8202 12.3932C40.5522 12.2919 40.3073 12.1378 40.1 11.94C39.905 11.7589 39.75 11.539 39.645 11.2945C39.5399 11.0499 39.4871 10.7861 39.49 10.52C39.4835 10.2385 39.5342 9.95871 39.6391 9.69743C39.7439 9.43616 39.9007 9.19889 40.1 9C40.3039 8.79978 40.5466 8.6433 40.8131 8.54013C41.0796 8.43696 41.3644 8.38928 41.65 8.4C42.0339 8.39292 42.413 8.48597 42.75 8.67C43.0648 8.83915 43.3301 9.08728 43.52 9.39C43.6967 9.66798 43.7904 9.99062 43.79 10.32H43.28C43.2873 9.93548 43.1909 9.55609 43.0008 9.22174C42.8108 8.88738 42.5341 8.61043 42.2 8.42C41.7777 8.19593 41.3014 8.09407 40.8244 8.12587C40.3474 8.15767 39.8888 8.32186 39.5 8.6C39.028 8.95533 38.639 9.40918 38.36 9.93C38.0233 10.5588 37.7775 11.2322 37.63 11.93C37.4542 12.7144 37.3669 13.5161 37.37 14.32L37.07 14.31Z" fill="white"/>
<path d="M53.6901 20.14C53.2074 20.1551 52.7266 20.0745 52.2752 19.9028C51.8238 19.7312 51.4109 19.4719 51.0601 19.14C50.2979 18.3529 49.7774 17.3639 49.5601 16.29V19.9H44.1201V19.39H45.9001V0.769994H44.1201V0.259995H49.5601V11.47C49.7758 10.4006 50.2928 9.41521 51.0501 8.62999C51.4024 8.29729 51.817 8.03763 52.2701 7.866C52.7232 7.69436 53.2058 7.61415 53.6901 7.62999C54.6262 7.62699 55.5444 7.88685 56.3401 8.37999C57.1821 8.90657 57.8716 9.64435 58.3401 10.52C58.8841 11.5581 59.1527 12.7184 59.1201 13.89C59.1528 15.0584 58.8842 16.2155 58.3401 17.25C57.8752 18.1335 57.1853 18.8786 56.3401 19.41C55.5423 19.8961 54.6243 20.149 53.6901 20.14ZM52.8101 19.31C53.0401 19.3074 53.2665 19.253 53.4725 19.1509C53.6785 19.0487 53.8589 18.9014 54.0001 18.72C54.3823 18.1899 54.6326 17.5762 54.7301 16.93C54.9224 15.9216 55.0129 14.8965 55.0001 13.87C55.0204 12.8442 54.9367 11.8189 54.7501 10.81C54.6516 10.1545 54.3941 9.53306 54.0001 8.99999C53.8563 8.81717 53.6724 8.6698 53.4626 8.56925C53.2528 8.46869 53.0227 8.41763 52.7901 8.41999C52.2223 8.43662 51.6793 8.65664 51.2601 9.03999C50.7034 9.53743 50.2805 10.1667 50.0301 10.87C49.6721 11.8283 49.5057 12.8476 49.5401 13.87C49.5069 14.8923 49.6734 15.9113 50.0301 16.87C50.2805 17.5762 50.7033 18.2086 51.2601 18.71C51.6874 19.0905 52.238 19.3037 52.8101 19.31V19.31Z" fill="white"/>
<path d="M85.4903 7.85V19.37H86.8603V19.88H80.0703V19.37H81.8503V8.37H80.0703V7.85H85.4903ZM93.4903 11.52V19.37H95.2703V19.88H88.4603V19.37H89.8303V11.85C89.8375 11.2554 89.8075 10.6609 89.7403 10.07C89.7196 9.7072 89.5907 9.35892 89.3703 9.07C89.2682 8.95903 89.1422 8.8726 89.002 8.81719C88.8617 8.76177 88.7107 8.7388 88.5603 8.75C88.0802 8.74757 87.6152 8.91794 87.2503 9.23C86.8328 9.57574 86.4922 10.0049 86.2503 10.49C85.9851 11.035 85.7837 11.6088 85.6503 12.2C85.5207 12.7981 85.4537 13.408 85.4503 14.02H85.0603C85.0823 13.3405 85.166 12.6644 85.3103 12C85.4561 11.2621 85.7052 10.5484 86.0503 9.88C86.392 9.22341 86.8816 8.65515 87.4803 8.22C88.1607 7.77024 88.9654 7.5463 89.7803 7.58C90.5729 7.53526 91.3623 7.71184 92.0603 8.09C92.5809 8.41201 92.9706 8.90801 93.1603 9.49C93.3795 10.1438 93.4844 10.8305 93.4703 11.52H93.4903Z" fill="white"/>
<path d="M62.7104 24.65C61.9604 25.12 60.8104 24.84 59.8104 23.92C59.2904 23.44 58.8104 22.92 58.2804 22.43C58.0404 22.2 57.9404 22.01 58.1904 21.88C58.7652 21.5953 59.4032 21.4625 60.0438 21.494C60.6844 21.5255 61.3063 21.7203 61.8504 22.06C62.1215 22.2193 62.3648 22.422 62.5704 22.66C63.2604 23.42 63.3204 24.26 62.7104 24.65Z" fill="white" stroke="white" stroke-width="0.4" stroke-miterlimit="10"/>
<path d="M65.1898 24.63C65.3598 24.99 65.8998 25.14 66.5498 25C66.8898 24.93 67.2298 24.83 67.5498 24.75C67.7198 24.75 67.8098 24.66 67.7398 24.55C67.5731 24.301 67.3442 24.0999 67.0759 23.9666C66.8075 23.8333 66.509 23.7724 66.2098 23.79C66.057 23.7888 65.9051 23.8124 65.7598 23.86C65.2898 24 64.9998 24.33 65.1898 24.63Z" fill="white" stroke="white" stroke-width="0.4" stroke-miterlimit="10"/>
<path d="M61.1401 15.5C61.1207 15.0274 61.2168 14.5571 61.4201 14.13C61.5227 13.8672 61.6894 13.6342 61.9052 13.4523C62.1209 13.2704 62.3787 13.1454 62.6551 13.0888C62.9315 13.0321 63.2177 13.0455 63.4876 13.1278C63.7574 13.2101 64.0024 13.3587 64.2001 13.56C64.7762 14.0185 65.2145 14.6271 65.4668 15.3188C65.7191 16.0104 65.7756 16.7583 65.6301 17.48C65.3897 18.5373 65.0859 19.5792 64.7201 20.6C64.6101 20.96 64.4401 21.14 64.0601 20.81C62.4282 19.4914 61.3795 17.5844 61.1401 15.5V15.5Z" fill="white"/>
<path d="M74.3098 11.56C73.4844 11.5397 72.6842 11.2713 72.0135 10.7897C71.3428 10.3081 70.8328 9.63565 70.5498 8.85999C70.2298 7.99999 69.9998 7.15999 69.6998 6.30999C69.5498 5.89999 69.5998 5.63999 70.1198 5.67999C71.1733 5.71245 72.2083 5.96603 73.1575 6.42428C74.1068 6.88253 74.9491 7.53522 75.6298 8.33999C75.8746 8.66091 76.0423 9.03387 76.1198 9.43C76.2069 9.69649 76.2241 9.98087 76.17 10.256C76.1159 10.531 75.9921 10.7877 75.8106 11.0013C75.629 11.2149 75.3958 11.3785 75.133 11.4763C74.8703 11.5741 74.5868 11.6029 74.3098 11.56Z" fill="white"/>
<path d="M77.7002 11.54C78.3102 13.98 78.3702 16.23 76.8802 18.29C76.6439 18.6836 76.2793 18.9839 75.8478 19.1405C75.4162 19.2971 74.9439 19.3004 74.5102 19.15C73.6202 18.88 73.5102 18.05 73.3802 17.28C73.3054 16.706 73.3561 16.1227 73.5288 15.5702C73.7014 15.0177 73.9919 14.5093 74.3802 14.08C75.3901 13.1138 76.5035 12.262 77.7002 11.54V11.54Z" fill="white"/>
<path d="M63.48 11.56C63.04 11.56 62.6 11.56 62.17 11.56C61.52 11.56 61.32 11.42 61.64 10.79C62.64 8.79 63.88 7.14 66.14 6.52C66.5419 6.3845 66.9764 6.38026 67.3809 6.50788C67.7853 6.63551 68.1387 6.88839 68.39 7.23C68.5975 7.54277 68.7014 7.91285 68.687 8.2879C68.6727 8.66295 68.5408 9.024 68.31 9.32C67.9605 10.0023 67.4266 10.573 66.769 10.9672C66.1115 11.3614 65.3566 11.5633 64.59 11.55L63.48 11.56Z" fill="white"/>
<path d="M69.41 22.75C68.9428 22.7739 68.4759 22.6969 68.0411 22.5244C67.6062 22.3518 67.2137 22.0877 66.89 21.75C66.6921 21.5822 66.5377 21.3691 66.4399 21.1287C66.3422 20.8884 66.304 20.628 66.3285 20.3698C66.3531 20.1115 66.4397 19.863 66.5809 19.6454C66.7222 19.4278 66.914 19.2475 67.14 19.12C67.8181 18.675 68.607 18.428 69.4179 18.4068C70.2287 18.3856 71.0294 18.5911 71.73 19C72.53 19.53 73.28 20.14 74.08 20.68C74.52 20.99 74.52 21.18 74.08 21.46C72.6751 22.3195 71.0568 22.7665 69.41 22.75V22.75Z" fill="white"/>
<path d="M33.6405 27.24V29.17H33.4505C33.389 28.8529 33.274 28.5486 33.1105 28.27C32.9606 28.0168 32.7512 27.804 32.5005 27.65C32.2337 27.4954 31.9287 27.4191 31.6205 27.43H30.7905V34.1H31.7305V34.29H28.2305V34.1H29.0805V27.43H28.2305V27.24H33.6405ZM32.1805 32.05C32.1157 31.8441 32.0214 31.6488 31.9005 31.47C31.7951 31.2965 31.6514 31.1494 31.4805 31.04C31.3004 30.9291 31.0918 30.8734 30.8805 30.88H30.2705V30.69H30.8805C31.0904 30.6952 31.2977 30.6434 31.4805 30.54C31.6482 30.4392 31.7916 30.3026 31.9005 30.14C32.0214 29.9648 32.1157 29.7728 32.1805 29.57H32.3705V32.05H32.1805Z" fill="white"/>
<path d="M39.5504 30.7V30.59H40.8904C41.1498 30.6008 41.4078 30.5457 41.6404 30.43C41.8436 30.3203 42.0026 30.1436 42.0904 29.93C42.2003 29.6327 42.2512 29.3168 42.2404 29C42.2528 28.6831 42.2018 28.3669 42.0904 28.07C42.0051 27.8573 41.8451 27.683 41.6404 27.58C41.4053 27.4727 41.1486 27.4213 40.8904 27.43H37.8904V27.24H41.2704C41.7535 27.2367 42.2348 27.3007 42.7004 27.43C43.0801 27.5237 43.4263 27.721 43.7004 28C43.921 28.2845 44.028 28.641 44.0004 29C44.0216 29.3632 43.9035 29.7208 43.6703 30C43.4021 30.2825 43.0526 30.4747 42.6703 30.55C42.1907 30.6751 41.6959 30.7324 41.2004 30.72L39.5504 30.7ZM37.8604 34.29V34.1H41.3703V34.29H37.8604ZM38.7603 34.19V27.33H40.4804V34.19H38.7603ZM43.5404 34.37C43.2625 34.3822 42.9854 34.3309 42.7304 34.22C42.5488 34.1301 42.3988 33.9871 42.3004 33.81C42.2002 33.6343 42.1356 33.4406 42.1104 33.24C42.1104 33.02 42.1104 32.8 42.1104 32.58C42.1104 32.36 42.1104 32.13 42.1104 31.92C42.0948 31.7224 42.0544 31.5276 41.9904 31.34C41.9239 31.1704 41.8047 31.0267 41.6504 30.93C41.4489 30.8188 41.2201 30.7668 40.9904 30.78H39.5504V30.68H41.9304C42.2739 30.665 42.6162 30.7301 42.9304 30.87C43.1605 30.9716 43.3529 31.143 43.4804 31.36C43.6116 31.5615 43.6938 31.791 43.7204 32.03C43.7602 32.2679 43.7803 32.5088 43.7803 32.75C43.7803 33 43.7803 33.22 43.7803 33.42C43.7763 33.5888 43.8105 33.7563 43.8804 33.91C43.9118 33.9718 43.9609 34.0228 44.0215 34.0567C44.082 34.0905 44.1512 34.1056 44.2204 34.1C44.3101 34.1097 44.4006 34.1097 44.4904 34.1L44.7104 34.02L44.7704 34.2C44.627 34.2658 44.4757 34.3128 44.3204 34.34C44.0617 34.3726 43.8007 34.3827 43.5404 34.37V34.37Z" fill="white"/>
<path d="M49 34.29V34.1H49.85V27.43H49V27.24H54.57V29.17H54.39C54.3284 28.8465 54.1988 28.5398 54.01 28.27C53.8318 28.0121 53.5954 27.7997 53.32 27.65C53.0114 27.4911 52.6668 27.4153 52.32 27.43H51.54V34.1H52.23C52.6098 34.1122 52.987 34.0334 53.33 33.87C53.6293 33.7128 53.8839 33.4823 54.07 33.2C54.2638 32.8962 54.3932 32.5558 54.45 32.2H54.64V34.32L49 34.29ZM53 31.88C52.9407 31.6712 52.8386 31.4771 52.7 31.31C52.5782 31.1425 52.4255 31 52.25 30.89C52.0977 30.7914 51.9214 30.7361 51.74 30.73H51.33V30.55H51.74C51.9195 30.5499 52.0956 30.5016 52.25 30.41C52.4244 30.3112 52.5774 30.1786 52.7 30.02C52.8348 29.8505 52.9366 29.6571 53 29.45H53.19V31.88H53Z" fill="white"/>
<path d="M58.9102 34.29V34.1H59.7602V27.43H58.9102V27.24H64.4802V29.17H64.3002C64.2385 28.8465 64.109 28.5398 63.9202 28.27C63.7419 28.0121 63.5056 27.7997 63.2302 27.65C62.9216 27.4911 62.5769 27.4153 62.2302 27.43H61.4502V34.1H62.1402C62.5199 34.1122 62.8971 34.0334 63.2402 33.87C63.5468 33.7156 63.8085 33.4849 64.0002 33.2C64.1981 32.8983 64.3277 32.557 64.3802 32.2H64.5702V34.32L58.9102 34.29ZM62.9102 31.88C62.8426 31.6746 62.7412 31.482 62.6102 31.31C62.4822 31.1445 62.3266 31.0024 62.1502 30.89C61.9978 30.7914 61.8215 30.7361 61.6402 30.73H61.2302V30.55H61.6402C61.8196 30.5499 61.9958 30.5016 62.1502 30.41C62.3264 30.3053 62.4795 30.1658 62.6002 30C62.7379 29.8309 62.843 29.6376 62.9102 29.43H63.0902V31.86L62.9102 31.88Z" fill="white"/>
</g>
<defs>
<clipPath id="clip0_14_1989">
<rect width="95.25" height="34.37" fill="white"/>
</clipPath>
</defs>
</svg>
