<svg width="28" height="28" viewBox="0 0 28 28" fill="none" xmlns="http://www.w3.org/2000/svg">
<path d="M22.9602 2.24023H5.04023C3.49463 2.24023 2.24023 3.49463 2.24023 5.04023V22.9602C2.24023 24.5058 3.49463 25.7602 5.04023 25.7602H22.9602C24.5058 25.7602 25.7602 24.5058 25.7602 22.9602V5.04023C25.7602 3.49463 24.5058 2.24023 22.9602 2.24023ZM20.7202 10.6402H19.6002C18.4018 10.6402 17.9202 10.9202 17.9202 11.7602V13.4402H20.7202L20.1602 16.2402H17.9202V24.6402H15.1202V16.2402H12.8802V13.4402H15.1202V11.7602C15.1202 9.52023 16.2402 7.84023 18.4802 7.84023C20.1042 7.84023 20.7202 8.40023 20.7202 8.40023V10.6402Z" fill="#F8F1EB"/>
</svg>
