<svg width="28" height="28" viewBox="0 0 28 28" fill="none" xmlns="http://www.w3.org/2000/svg">
<path d="M22.9602 2.24023H5.04023C3.49463 2.24023 2.24023 3.49463 2.24023 5.04023V22.9602C2.24023 24.5058 3.49463 25.7602 5.04023 25.7602H22.9602C24.5058 25.7602 25.7602 24.5058 25.7602 22.9602V5.04023C25.7602 3.49463 24.5058 2.24023 22.9602 2.24023ZM9.52023 11.2002V21.8402H6.16023V11.2002H9.52023ZM6.16023 8.10343C6.16023 7.31943 6.83223 6.72023 7.84023 6.72023C8.84823 6.72023 9.48103 7.31943 9.52023 8.10343C9.52023 8.88743 8.89303 9.52023 7.84023 9.52023C6.83223 9.52023 6.16023 8.88743 6.16023 8.10343ZM21.8402 21.8402H18.4802C18.4802 21.8402 18.4802 16.6546 18.4802 16.2402C18.4802 15.1202 17.9202 14.0002 16.5202 13.9778H16.4754C15.1202 13.9778 14.5602 15.1314 14.5602 16.2402C14.5602 16.7498 14.5602 21.8402 14.5602 21.8402H11.2002V11.2002H14.5602V12.6338C14.5602 12.6338 15.641 11.2002 17.8138 11.2002C20.037 11.2002 21.8402 12.729 21.8402 15.8258V21.8402Z" fill="#F8F1EB"/>
</svg>
