<svg width="28" height="28" viewBox="0 0 28 28" fill="none" xmlns="http://www.w3.org/2000/svg">
<g clip-path="url(#clip0_14_1789)">
<path d="M28.0346 5.84488C26.9999 6.30426 25.8909 6.61269 24.7249 6.75269C25.9149 6.03957 26.8293 4.91082 27.258 3.5677C26.1468 4.22613 24.9109 4.7052 23.6005 4.96332C22.5505 3.84332 21.0543 3.14551 19.3984 3.14551C16.2177 3.14551 13.6387 5.72238 13.6387 8.90301C13.6387 9.35363 13.6912 9.79332 13.7896 10.2155C9.00336 9.97488 4.7618 7.68238 1.92023 4.1977C1.42367 5.05082 1.14148 6.03957 1.14148 7.09394C1.14148 9.09113 2.15648 10.8543 3.70305 11.8889C2.75805 11.8583 1.86992 11.598 1.09336 11.1671C1.09336 11.1911 1.09336 11.2152 1.09336 11.2393C1.09336 14.0305 3.07961 16.3558 5.71117 16.8874C5.22992 17.0186 4.72023 17.0886 4.19523 17.0886C3.82336 17.0886 3.46242 17.0536 3.11023 16.9836C3.84523 19.2696 5.97149 20.9386 8.4893 20.9846C6.52055 22.5289 4.03773 23.4477 1.33836 23.4477C0.872422 23.4477 0.415235 23.4214 -0.0332031 23.3668C2.51305 25.003 5.54055 25.9546 8.79336 25.9546C19.3852 25.9546 25.1777 17.1805 25.1777 9.57238C25.1777 9.32301 25.1712 9.07144 25.1624 8.82644C26.2868 8.01488 27.2624 6.99988 28.0346 5.84488Z" fill="#F8F1EB"/>
</g>
<defs>
<clipPath id="clip0_14_1789">
<rect width="28" height="28" fill="white"/>
</clipPath>
</defs>
</svg>
