<svg width="677" height="210" viewBox="0 0 677 210" fill="none" xmlns="http://www.w3.org/2000/svg">
<g opacity="0.16" clip-path="url(#clip0_14_1738)">
<path d="M23.9784 49.5439L8 23.0574V210H567.243V61.1317L551.264 39.3749L535.286 95.706L519.308 88.4695L503.329 130.659L487.351 114.105L471.373 164.003L455.394 136.665L439.416 186.375L423.437 143.334L407.459 158.233L391.481 74.375L375.502 61.4628L359.524 90.929L343.546 100.861L327.567 47.8885L311.589 74.375L295.611 87.1452L279.632 66.0979L263.654 130.659L247.675 110.794L231.697 158.801L215.719 87.6182L199.74 140.591L183.762 181.976L167.784 102.517L151.805 117.415L135.827 67.7533L119.849 87.6182L103.87 42.9222L87.8918 110.794L71.9135 147.213L55.9351 71.0641L39.9567 90.929L23.9784 49.5439Z" fill="#0D8D42"/>
</g>
<g clip-path="url(#clip1_14_1738)">
<path d="M8 23.0574L23.9784 49.5439L39.9567 90.929L55.9351 71.0641L71.9135 147.213L87.8918 110.794L103.87 42.9222L119.849 87.6182L135.827 67.7533L151.805 117.415L167.784 102.517L183.762 181.976L199.74 140.591L215.719 87.6182L231.697 158.801L247.675 110.794L263.654 130.659L279.632 66.0979L295.611 87.1452L311.589 74.3749L327.567 47.8885L343.546 100.861L359.524 90.929L375.502 61.4628L391.481 74.3749L407.459 158.233L423.437 143.334L439.416 186.375L455.394 136.665L471.373 164.003L487.351 114.105L503.329 130.659L519.308 88.4695L535.286 95.706L551.264 39.3749L567.243 61.1317" stroke="#0D8D42" stroke-width="0.665765"/>
</g>
<rect x="20.9816" y="46.337" width="5.99189" height="5.99189" rx="2.99594" fill="#0D8D42" stroke="white" stroke-width="0.665765"/>
<rect x="36.9611" y="87.6808" width="5.99189" height="5.99189" rx="2.99594" fill="#0D8D42" stroke="white" stroke-width="0.665765"/>
<rect x="52.9406" y="67.9933" width="5.99189" height="5.99189" rx="2.99594" fill="#0D8D42" stroke="white" stroke-width="0.665765"/>
<rect x="68.9161" y="144.118" width="5.99189" height="5.99189" rx="2.99594" fill="#0D8D42" stroke="white" stroke-width="0.665765"/>
<rect x="5.00501" y="19.4308" width="5.99189" height="5.99189" rx="2.99594" fill="#0D8D42" stroke="white" stroke-width="0.665765"/>
<rect x="100.875" y="39.7745" width="5.99189" height="5.99189" rx="2.99594" fill="#0D8D42" stroke="white" stroke-width="0.665765"/>
<rect x="116.852" y="85.0558" width="5.99189" height="5.99189" rx="2.99594" fill="#0D8D42" stroke="white" stroke-width="0.665765"/>
<rect x="132.83" y="65.3683" width="5.99189" height="5.99189" rx="2.99594" fill="#0D8D42" stroke="white" stroke-width="0.665765"/>
<rect x="148.811" y="114.587" width="5.99189" height="5.99189" rx="2.99594" fill="#0D8D42" stroke="white" stroke-width="0.665765"/>
<rect x="84.8947" y="108.025" width="5.99189" height="5.99189" rx="2.99594" fill="#0D8D42" stroke="white" stroke-width="0.665765"/>
<rect x="180.765" y="178.9" width="5.99189" height="5.99189" rx="2.99594" fill="#0D8D42" stroke="white" stroke-width="0.665765"/>
<rect x="196.745" y="137.556" width="5.99189" height="5.99189" rx="2.99594" fill="#0D8D42" stroke="white" stroke-width="0.665765"/>
<rect x="212.724" y="85.0558" width="5.99189" height="5.99189" rx="2.99594" fill="#0D8D42" stroke="white" stroke-width="0.665765"/>
<rect x="228.7" y="155.931" width="5.99189" height="5.99189" rx="2.99594" fill="#0D8D42" stroke="white" stroke-width="0.665765"/>
<rect x="244.68" y="108.025" width="5.99189" height="5.99189" rx="2.99594" fill="#0D8D42" stroke="white" stroke-width="0.665765"/>
<rect x="164.787" y="100.15" width="5.99189" height="5.99189" rx="2.99594" fill="#0D8D42" stroke="white" stroke-width="0.665765"/>
<defs>
<clipPath id="clip0_14_1738">
<rect width="669" height="186.943" fill="white" transform="translate(8 23.0574)"/>
</clipPath>
<clipPath id="clip1_14_1738">
<rect width="669" height="163.318" fill="white" transform="translate(8 23.0574)"/>
</clipPath>
</defs>
</svg>
