<svg width="541" height="79" viewBox="0 0 541 79" fill="none" xmlns="http://www.w3.org/2000/svg">
<path d="M0.964844 18L7.5625 0.820312H10.0117L17.043 18H14.4531L12.4492 12.7969H5.26562L3.37891 18H0.964844ZM5.92188 10.9453H11.7461L9.95312 6.1875C9.40625 4.74219 9 3.55469 8.73438 2.625C8.51562 3.72656 8.20703 4.82031 7.80859 5.90625L5.92188 10.9453ZM23.9336 18V5.55469H25.8203V7.30078C26.2109 6.69141 26.7305 6.20312 27.3789 5.83594C28.0273 5.46094 28.7656 5.27344 29.5938 5.27344C30.5156 5.27344 31.2695 5.46484 31.8555 5.84766C32.4492 6.23047 32.8672 6.76562 33.1094 7.45312C34.0938 6 35.375 5.27344 36.9531 5.27344C38.1875 5.27344 39.1367 5.61719 39.8008 6.30469C40.4648 6.98438 40.7969 8.03516 40.7969 9.45703V18H38.6992V10.1602C38.6992 9.31641 38.6289 8.71094 38.4883 8.34375C38.3555 7.96875 38.1094 7.66797 37.75 7.44141C37.3906 7.21484 36.9688 7.10156 36.4844 7.10156C35.6094 7.10156 34.8828 7.39453 34.3047 7.98047C33.7266 8.55859 33.4375 9.48828 33.4375 10.7695V18H31.3281V9.91406C31.3281 8.97656 31.1562 8.27344 30.8125 7.80469C30.4688 7.33594 29.9062 7.10156 29.125 7.10156C28.5312 7.10156 27.9805 7.25781 27.4727 7.57031C26.9727 7.88281 26.6094 8.33984 26.3828 8.94141C26.1562 9.54297 26.043 10.4102 26.043 11.543V18H23.9336ZM43.1406 11.7773C43.1406 9.47266 43.7812 7.76562 45.0625 6.65625C46.1328 5.73438 47.4375 5.27344 48.9766 5.27344C50.6875 5.27344 52.0859 5.83594 53.1719 6.96094C54.2578 8.07812 54.8008 9.625 54.8008 11.6016C54.8008 13.2031 54.5586 14.4648 54.0742 15.3867C53.5977 16.3008 52.8984 17.0117 51.9766 17.5195C51.0625 18.0273 50.0625 18.2812 48.9766 18.2812C47.2344 18.2812 45.8242 17.7227 44.7461 16.6055C43.6758 15.4883 43.1406 13.8789 43.1406 11.7773ZM45.3086 11.7773C45.3086 13.3711 45.6562 14.5664 46.3516 15.3633C47.0469 16.1523 47.9219 16.5469 48.9766 16.5469C50.0234 16.5469 50.8945 16.1484 51.5898 15.3516C52.2852 14.5547 52.6328 13.3398 52.6328 11.707C52.6328 10.168 52.2812 9.00391 51.5781 8.21484C50.8828 7.41797 50.0156 7.01953 48.9766 7.01953C47.9219 7.01953 47.0469 7.41406 46.3516 8.20312C45.6562 8.99219 45.3086 10.1836 45.3086 11.7773ZM57.2617 18V5.55469H59.1602V7.44141C59.6445 6.55859 60.0898 5.97656 60.4961 5.69531C60.9102 5.41406 61.3633 5.27344 61.8555 5.27344C62.5664 5.27344 63.2891 5.5 64.0234 5.95312L63.2969 7.91016C62.7812 7.60547 62.2656 7.45312 61.75 7.45312C61.2891 7.45312 60.875 7.59375 60.5078 7.875C60.1406 8.14844 59.8789 8.53125 59.7227 9.02344C59.4883 9.77344 59.3711 10.5938 59.3711 11.4844V18H57.2617ZM73.7969 13.9922L75.9766 14.2617C75.6328 15.5352 74.9961 16.5234 74.0664 17.2266C73.1367 17.9297 71.9492 18.2812 70.5039 18.2812C68.6836 18.2812 67.2383 17.7227 66.168 16.6055C65.1055 15.4805 64.5742 13.9062 64.5742 11.8828C64.5742 9.78906 65.1133 8.16406 66.1914 7.00781C67.2695 5.85156 68.668 5.27344 70.3867 5.27344C72.0508 5.27344 73.4102 5.83984 74.4648 6.97266C75.5195 8.10547 76.0469 9.69922 76.0469 11.7539C76.0469 11.8789 76.043 12.0664 76.0352 12.3164H66.7539C66.832 13.6836 67.2188 14.7305 67.9141 15.457C68.6094 16.1836 69.4766 16.5469 70.5156 16.5469C71.2891 16.5469 71.9492 16.3438 72.4961 15.9375C73.043 15.5312 73.4766 14.8828 73.7969 13.9922ZM66.8711 10.582H73.8203C73.7266 9.53516 73.4609 8.75 73.0234 8.22656C72.3516 7.41406 71.4805 7.00781 70.4102 7.00781C69.4414 7.00781 68.625 7.33203 67.9609 7.98047C67.3047 8.62891 66.9414 9.49609 66.8711 10.582ZM96.8711 18H93.8125V16.1719C93.3047 16.8828 92.7031 17.4141 92.0078 17.7656C91.3203 18.1094 90.625 18.2812 89.9219 18.2812C88.4922 18.2812 87.2656 17.707 86.2422 16.5586C85.2266 15.4023 84.7188 13.793 84.7188 11.7305C84.7188 9.62109 85.2148 8.01953 86.207 6.92578C87.1992 5.82422 88.4531 5.27344 89.9688 5.27344C91.3594 5.27344 92.5625 5.85156 93.5781 7.00781V0.820312H96.8711V18ZM88.082 11.5078C88.082 12.8359 88.2656 13.7969 88.6328 14.3906C89.1641 15.25 89.9062 15.6797 90.8594 15.6797C91.6172 15.6797 92.2617 15.3594 92.793 14.7188C93.3242 14.0703 93.5898 13.1055 93.5898 11.8242C93.5898 10.3945 93.332 9.36719 92.8164 8.74219C92.3008 8.10938 91.6406 7.79297 90.8359 7.79297C90.0547 7.79297 89.3984 8.10547 88.8672 8.73047C88.3438 9.34766 88.082 10.2734 88.082 11.5078ZM107.336 14.0391L110.617 14.5898C110.195 15.793 109.527 16.7109 108.613 17.3438C107.707 17.9688 106.57 18.2812 105.203 18.2812C103.039 18.2812 101.438 17.5742 100.398 16.1602C99.5781 15.0273 99.168 13.5977 99.168 11.8711C99.168 9.80859 99.707 8.19531 100.785 7.03125C101.863 5.85938 103.227 5.27344 104.875 5.27344C106.727 5.27344 108.188 5.88672 109.258 7.11328C110.328 8.33203 110.84 10.2031 110.793 12.7266H102.543C102.566 13.7031 102.832 14.4648 103.34 15.0117C103.848 15.5508 104.48 15.8203 105.238 15.8203C105.754 15.8203 106.188 15.6797 106.539 15.3984C106.891 15.1172 107.156 14.6641 107.336 14.0391ZM107.523 10.7109C107.5 9.75781 107.254 9.03516 106.785 8.54297C106.316 8.04297 105.746 7.79297 105.074 7.79297C104.355 7.79297 103.762 8.05469 103.293 8.57812C102.824 9.10156 102.594 9.8125 102.602 10.7109H107.523ZM119.195 5.55469V8.17969H116.945V13.1953C116.945 14.2109 116.965 14.8047 117.004 14.9766C117.051 15.1406 117.148 15.2773 117.297 15.3867C117.453 15.4961 117.641 15.5508 117.859 15.5508C118.164 15.5508 118.605 15.4453 119.184 15.2344L119.465 17.7891C118.699 18.1172 117.832 18.2812 116.863 18.2812C116.27 18.2812 115.734 18.1836 115.258 17.9883C114.781 17.7852 114.43 17.5273 114.203 17.2148C113.984 16.8945 113.832 16.4648 113.746 15.9258C113.676 15.543 113.641 14.7695 113.641 13.6055V8.17969H112.129V5.55469H113.641V3.08203L116.945 1.16016V5.55469H119.195ZM123.941 9.35156L120.953 8.8125C121.289 7.60938 121.867 6.71875 122.688 6.14062C123.508 5.5625 124.727 5.27344 126.344 5.27344C127.812 5.27344 128.906 5.44922 129.625 5.80078C130.344 6.14453 130.848 6.58594 131.137 7.125C131.434 7.65625 131.582 8.63672 131.582 10.0664L131.547 13.9102C131.547 15.0039 131.598 15.8125 131.699 16.3359C131.809 16.8516 132.008 17.4062 132.297 18H129.039C128.953 17.7812 128.848 17.457 128.723 17.0273C128.668 16.832 128.629 16.7031 128.605 16.6406C128.043 17.1875 127.441 17.5977 126.801 17.8711C126.16 18.1445 125.477 18.2812 124.75 18.2812C123.469 18.2812 122.457 17.9336 121.715 17.2383C120.98 16.543 120.613 15.6641 120.613 14.6016C120.613 13.8984 120.781 13.2734 121.117 12.7266C121.453 12.1719 121.922 11.75 122.523 11.4609C123.133 11.1641 124.008 10.9062 125.148 10.6875C126.688 10.3984 127.754 10.1289 128.348 9.87891V9.55078C128.348 8.91797 128.191 8.46875 127.879 8.20312C127.566 7.92969 126.977 7.79297 126.109 7.79297C125.523 7.79297 125.066 7.91016 124.738 8.14453C124.41 8.37109 124.145 8.77344 123.941 9.35156ZM128.348 12.0234C127.926 12.1641 127.258 12.332 126.344 12.5273C125.43 12.7227 124.832 12.9141 124.551 13.1016C124.121 13.4062 123.906 13.793 123.906 14.2617C123.906 14.7227 124.078 15.1211 124.422 15.457C124.766 15.793 125.203 15.9609 125.734 15.9609C126.328 15.9609 126.895 15.7656 127.434 15.375C127.832 15.0781 128.094 14.7148 128.219 14.2852C128.305 14.0039 128.348 13.4688 128.348 12.6797V12.0234ZM134.84 3.86719V0.820312H138.133V3.86719H134.84ZM134.84 18V5.55469H138.133V18H134.84ZM141.52 18V0.820312H144.812V18H141.52ZM155.406 14.0391L158.688 14.5898C158.266 15.793 157.598 16.7109 156.684 17.3438C155.777 17.9688 154.641 18.2812 153.273 18.2812C151.109 18.2812 149.508 17.5742 148.469 16.1602C147.648 15.0273 147.238 13.5977 147.238 11.8711C147.238 9.80859 147.777 8.19531 148.855 7.03125C149.934 5.85938 151.297 5.27344 152.945 5.27344C154.797 5.27344 156.258 5.88672 157.328 7.11328C158.398 8.33203 158.91 10.2031 158.863 12.7266H150.613C150.637 13.7031 150.902 14.4648 151.41 15.0117C151.918 15.5508 152.551 15.8203 153.309 15.8203C153.824 15.8203 154.258 15.6797 154.609 15.3984C154.961 15.1172 155.227 14.6641 155.406 14.0391ZM155.594 10.7109C155.57 9.75781 155.324 9.03516 154.855 8.54297C154.387 8.04297 153.816 7.79297 153.145 7.79297C152.426 7.79297 151.832 8.05469 151.363 8.57812C150.895 9.10156 150.664 9.8125 150.672 10.7109H155.594ZM172.973 18H169.914V16.1719C169.406 16.8828 168.805 17.4141 168.109 17.7656C167.422 18.1094 166.727 18.2812 166.023 18.2812C164.594 18.2812 163.367 17.707 162.344 16.5586C161.328 15.4023 160.82 13.793 160.82 11.7305C160.82 9.62109 161.316 8.01953 162.309 6.92578C163.301 5.82422 164.555 5.27344 166.07 5.27344C167.461 5.27344 168.664 5.85156 169.68 7.00781V0.820312H172.973V18ZM164.184 11.5078C164.184 12.8359 164.367 13.7969 164.734 14.3906C165.266 15.25 166.008 15.6797 166.961 15.6797C167.719 15.6797 168.363 15.3594 168.895 14.7188C169.426 14.0703 169.691 13.1055 169.691 11.8242C169.691 10.3945 169.434 9.36719 168.918 8.74219C168.402 8.10938 167.742 7.79297 166.938 7.79297C166.156 7.79297 165.5 8.10547 164.969 8.73047C164.445 9.34766 164.184 10.2734 164.184 11.5078ZM186.062 18H182.77V5.55469H185.828V7.32422C186.352 6.48828 186.82 5.9375 187.234 5.67188C187.656 5.40625 188.133 5.27344 188.664 5.27344C189.414 5.27344 190.137 5.48047 190.832 5.89453L189.812 8.76562C189.258 8.40625 188.742 8.22656 188.266 8.22656C187.805 8.22656 187.414 8.35547 187.094 8.61328C186.773 8.86328 186.52 9.32031 186.332 9.98438C186.152 10.6484 186.062 12.0391 186.062 14.1562V18ZM199.469 14.0391L202.75 14.5898C202.328 15.793 201.66 16.7109 200.746 17.3438C199.84 17.9688 198.703 18.2812 197.336 18.2812C195.172 18.2812 193.57 17.5742 192.531 16.1602C191.711 15.0273 191.301 13.5977 191.301 11.8711C191.301 9.80859 191.84 8.19531 192.918 7.03125C193.996 5.85938 195.359 5.27344 197.008 5.27344C198.859 5.27344 200.32 5.88672 201.391 7.11328C202.461 8.33203 202.973 10.2031 202.926 12.7266H194.676C194.699 13.7031 194.965 14.4648 195.473 15.0117C195.98 15.5508 196.613 15.8203 197.371 15.8203C197.887 15.8203 198.32 15.6797 198.672 15.3984C199.023 15.1172 199.289 14.6641 199.469 14.0391ZM199.656 10.7109C199.633 9.75781 199.387 9.03516 198.918 8.54297C198.449 8.04297 197.879 7.79297 197.207 7.79297C196.488 7.79297 195.895 8.05469 195.426 8.57812C194.957 9.10156 194.727 9.8125 194.734 10.7109H199.656ZM205.527 5.55469H208.598V7.38281C208.996 6.75781 209.535 6.25 210.215 5.85938C210.895 5.46875 211.648 5.27344 212.477 5.27344C213.922 5.27344 215.148 5.83984 216.156 6.97266C217.164 8.10547 217.668 9.68359 217.668 11.707C217.668 13.7852 217.16 15.4023 216.145 16.5586C215.129 17.707 213.898 18.2812 212.453 18.2812C211.766 18.2812 211.141 18.1445 210.578 17.8711C210.023 17.5977 209.438 17.1289 208.82 16.4648V22.7344H205.527V5.55469ZM208.785 11.5664C208.785 12.9648 209.062 14 209.617 14.6719C210.172 15.3359 210.848 15.668 211.645 15.668C212.41 15.668 213.047 15.3633 213.555 14.7539C214.062 14.1367 214.316 13.1289 214.316 11.7305C214.316 10.4258 214.055 9.45703 213.531 8.82422C213.008 8.19141 212.359 7.875 211.586 7.875C210.781 7.875 210.113 8.1875 209.582 8.8125C209.051 9.42969 208.785 10.3477 208.785 11.5664ZM219.531 11.6016C219.531 10.5078 219.801 9.44922 220.34 8.42578C220.879 7.40234 221.641 6.62109 222.625 6.08203C223.617 5.54297 224.723 5.27344 225.941 5.27344C227.824 5.27344 229.367 5.88672 230.57 7.11328C231.773 8.33203 232.375 9.875 232.375 11.7422C232.375 13.625 231.766 15.1875 230.547 16.4297C229.336 17.6641 227.809 18.2812 225.965 18.2812C224.824 18.2812 223.734 18.0234 222.695 17.5078C221.664 16.9922 220.879 16.2383 220.34 15.2461C219.801 14.2461 219.531 13.0312 219.531 11.6016ZM222.906 11.7773C222.906 13.0117 223.199 13.957 223.785 14.6133C224.371 15.2695 225.094 15.5977 225.953 15.5977C226.812 15.5977 227.531 15.2695 228.109 14.6133C228.695 13.957 228.988 13.0039 228.988 11.7539C228.988 10.5352 228.695 9.59766 228.109 8.94141C227.531 8.28516 226.812 7.95703 225.953 7.95703C225.094 7.95703 224.371 8.28516 223.785 8.94141C223.199 9.59766 222.906 10.543 222.906 11.7773ZM238.117 18H234.824V5.55469H237.883V7.32422C238.406 6.48828 238.875 5.9375 239.289 5.67188C239.711 5.40625 240.188 5.27344 240.719 5.27344C241.469 5.27344 242.191 5.48047 242.887 5.89453L241.867 8.76562C241.312 8.40625 240.797 8.22656 240.32 8.22656C239.859 8.22656 239.469 8.35547 239.148 8.61328C238.828 8.86328 238.574 9.32031 238.387 9.98438C238.207 10.6484 238.117 12.0391 238.117 14.1562V18ZM250.023 5.55469V8.17969H247.773V13.1953C247.773 14.2109 247.793 14.8047 247.832 14.9766C247.879 15.1406 247.977 15.2773 248.125 15.3867C248.281 15.4961 248.469 15.5508 248.688 15.5508C248.992 15.5508 249.434 15.4453 250.012 15.2344L250.293 17.7891C249.527 18.1172 248.66 18.2812 247.691 18.2812C247.098 18.2812 246.562 18.1836 246.086 17.9883C245.609 17.7852 245.258 17.5273 245.031 17.2148C244.812 16.8945 244.66 16.4648 244.574 15.9258C244.504 15.543 244.469 14.7695 244.469 13.6055V8.17969H242.957V5.55469H244.469V3.08203L247.773 1.16016V5.55469H250.023ZM258.859 3.24609V0.820312H260.969V3.24609H258.859ZM258.859 18V5.55469H260.969V18H258.859ZM263.348 14.2852L265.434 13.957C265.551 14.793 265.875 15.4336 266.406 15.8789C266.945 16.3242 267.695 16.5469 268.656 16.5469C269.625 16.5469 270.344 16.3516 270.812 15.9609C271.281 15.5625 271.516 15.0977 271.516 14.5664C271.516 14.0898 271.309 13.7148 270.895 13.4414C270.605 13.2539 269.887 13.0156 268.738 12.7266C267.191 12.3359 266.117 12 265.516 11.7188C264.922 11.4297 264.469 11.0352 264.156 10.5352C263.852 10.0273 263.699 9.46875 263.699 8.85938C263.699 8.30469 263.824 7.79297 264.074 7.32422C264.332 6.84766 264.68 6.45312 265.117 6.14062C265.445 5.89844 265.891 5.69531 266.453 5.53125C267.023 5.35938 267.633 5.27344 268.281 5.27344C269.258 5.27344 270.113 5.41406 270.848 5.69531C271.59 5.97656 272.137 6.35938 272.488 6.84375C272.84 7.32031 273.082 7.96094 273.215 8.76562L271.152 9.04688C271.059 8.40625 270.785 7.90625 270.332 7.54688C269.887 7.1875 269.254 7.00781 268.434 7.00781C267.465 7.00781 266.773 7.16797 266.359 7.48828C265.945 7.80859 265.738 8.18359 265.738 8.61328C265.738 8.88672 265.824 9.13281 265.996 9.35156C266.168 9.57812 266.438 9.76562 266.805 9.91406C267.016 9.99219 267.637 10.1719 268.668 10.4531C270.16 10.8516 271.199 11.1797 271.785 11.4375C272.379 11.6875 272.844 12.0547 273.18 12.5391C273.516 13.0234 273.684 13.625 273.684 14.3438C273.684 15.0469 273.477 15.7109 273.062 16.3359C272.656 16.9531 272.066 17.4336 271.293 17.7773C270.52 18.1133 269.645 18.2812 268.668 18.2812C267.051 18.2812 265.816 17.9453 264.965 17.2734C264.121 16.6016 263.582 15.6055 263.348 14.2852ZM290.992 16.4648C290.211 17.1289 289.457 17.5977 288.73 17.8711C288.012 18.1445 287.238 18.2812 286.41 18.2812C285.043 18.2812 283.992 17.9492 283.258 17.2852C282.523 16.6133 282.156 15.7578 282.156 14.7188C282.156 14.1094 282.293 13.5547 282.566 13.0547C282.848 12.5469 283.211 12.1406 283.656 11.8359C284.109 11.5312 284.617 11.3008 285.18 11.1445C285.594 11.0352 286.219 10.9297 287.055 10.8281C288.758 10.625 290.012 10.3828 290.816 10.1016C290.824 9.8125 290.828 9.62891 290.828 9.55078C290.828 8.69141 290.629 8.08594 290.23 7.73438C289.691 7.25781 288.891 7.01953 287.828 7.01953C286.836 7.01953 286.102 7.19531 285.625 7.54688C285.156 7.89062 284.809 8.50391 284.582 9.38672L282.52 9.10547C282.707 8.22266 283.016 7.51172 283.445 6.97266C283.875 6.42578 284.496 6.00781 285.309 5.71875C286.121 5.42188 287.062 5.27344 288.133 5.27344C289.195 5.27344 290.059 5.39844 290.723 5.64844C291.387 5.89844 291.875 6.21484 292.188 6.59766C292.5 6.97266 292.719 7.44922 292.844 8.02734C292.914 8.38672 292.949 9.03516 292.949 9.97266V12.7852C292.949 14.7461 292.992 15.9883 293.078 16.5117C293.172 17.0273 293.352 17.5234 293.617 18H291.414C291.195 17.5625 291.055 17.0508 290.992 16.4648ZM290.816 11.7539C290.051 12.0664 288.902 12.332 287.371 12.5508C286.504 12.6758 285.891 12.8164 285.531 12.9727C285.172 13.1289 284.895 13.3594 284.699 13.6641C284.504 13.9609 284.406 14.293 284.406 14.6602C284.406 15.2227 284.617 15.6914 285.039 16.0664C285.469 16.4414 286.094 16.6289 286.914 16.6289C287.727 16.6289 288.449 16.4531 289.082 16.1016C289.715 15.7422 290.18 15.2539 290.477 14.6367C290.703 14.1602 290.816 13.457 290.816 12.5273V11.7539ZM299.688 18L294.953 5.55469H297.18L299.852 13.0078C300.141 13.8125 300.406 14.6484 300.648 15.5156C300.836 14.8594 301.098 14.0703 301.434 13.1484L304.199 5.55469H306.367L301.656 18H299.688ZM316.352 16.4648C315.57 17.1289 314.816 17.5977 314.09 17.8711C313.371 18.1445 312.598 18.2812 311.77 18.2812C310.402 18.2812 309.352 17.9492 308.617 17.2852C307.883 16.6133 307.516 15.7578 307.516 14.7188C307.516 14.1094 307.652 13.5547 307.926 13.0547C308.207 12.5469 308.57 12.1406 309.016 11.8359C309.469 11.5312 309.977 11.3008 310.539 11.1445C310.953 11.0352 311.578 10.9297 312.414 10.8281C314.117 10.625 315.371 10.3828 316.176 10.1016C316.184 9.8125 316.188 9.62891 316.188 9.55078C316.188 8.69141 315.988 8.08594 315.59 7.73438C315.051 7.25781 314.25 7.01953 313.188 7.01953C312.195 7.01953 311.461 7.19531 310.984 7.54688C310.516 7.89062 310.168 8.50391 309.941 9.38672L307.879 9.10547C308.066 8.22266 308.375 7.51172 308.805 6.97266C309.234 6.42578 309.855 6.00781 310.668 5.71875C311.48 5.42188 312.422 5.27344 313.492 5.27344C314.555 5.27344 315.418 5.39844 316.082 5.64844C316.746 5.89844 317.234 6.21484 317.547 6.59766C317.859 6.97266 318.078 7.44922 318.203 8.02734C318.273 8.38672 318.309 9.03516 318.309 9.97266V12.7852C318.309 14.7461 318.352 15.9883 318.438 16.5117C318.531 17.0273 318.711 17.5234 318.977 18H316.773C316.555 17.5625 316.414 17.0508 316.352 16.4648ZM316.176 11.7539C315.41 12.0664 314.262 12.332 312.73 12.5508C311.863 12.6758 311.25 12.8164 310.891 12.9727C310.531 13.1289 310.254 13.3594 310.059 13.6641C309.863 13.9609 309.766 14.293 309.766 14.6602C309.766 15.2227 309.977 15.6914 310.398 16.0664C310.828 16.4414 311.453 16.6289 312.273 16.6289C313.086 16.6289 313.809 16.4531 314.441 16.1016C315.074 15.7422 315.539 15.2539 315.836 14.6367C316.062 14.1602 316.176 13.457 316.176 12.5273V11.7539ZM321.602 3.24609V0.820312H323.711V3.24609H321.602ZM321.602 18V5.55469H323.711V18H321.602ZM326.887 18V0.820312H328.996V18H326.887ZM340.398 16.4648C339.617 17.1289 338.863 17.5977 338.137 17.8711C337.418 18.1445 336.645 18.2812 335.816 18.2812C334.449 18.2812 333.398 17.9492 332.664 17.2852C331.93 16.6133 331.562 15.7578 331.562 14.7188C331.562 14.1094 331.699 13.5547 331.973 13.0547C332.254 12.5469 332.617 12.1406 333.062 11.8359C333.516 11.5312 334.023 11.3008 334.586 11.1445C335 11.0352 335.625 10.9297 336.461 10.8281C338.164 10.625 339.418 10.3828 340.223 10.1016C340.23 9.8125 340.234 9.62891 340.234 9.55078C340.234 8.69141 340.035 8.08594 339.637 7.73438C339.098 7.25781 338.297 7.01953 337.234 7.01953C336.242 7.01953 335.508 7.19531 335.031 7.54688C334.562 7.89062 334.215 8.50391 333.988 9.38672L331.926 9.10547C332.113 8.22266 332.422 7.51172 332.852 6.97266C333.281 6.42578 333.902 6.00781 334.715 5.71875C335.527 5.42188 336.469 5.27344 337.539 5.27344C338.602 5.27344 339.465 5.39844 340.129 5.64844C340.793 5.89844 341.281 6.21484 341.594 6.59766C341.906 6.97266 342.125 7.44922 342.25 8.02734C342.32 8.38672 342.355 9.03516 342.355 9.97266V12.7852C342.355 14.7461 342.398 15.9883 342.484 16.5117C342.578 17.0273 342.758 17.5234 343.023 18H340.82C340.602 17.5625 340.461 17.0508 340.398 16.4648ZM340.223 11.7539C339.457 12.0664 338.309 12.332 336.777 12.5508C335.91 12.6758 335.297 12.8164 334.938 12.9727C334.578 13.1289 334.301 13.3594 334.105 13.6641C333.91 13.9609 333.812 14.293 333.812 14.6602C333.812 15.2227 334.023 15.6914 334.445 16.0664C334.875 16.4414 335.5 16.6289 336.32 16.6289C337.133 16.6289 337.855 16.4531 338.488 16.1016C339.121 15.7422 339.586 15.2539 339.883 14.6367C340.109 14.1602 340.223 13.457 340.223 12.5273V11.7539ZM347.582 18H345.625V0.820312H347.734V6.94922C348.625 5.83203 349.762 5.27344 351.145 5.27344C351.91 5.27344 352.633 5.42969 353.312 5.74219C354 6.04688 354.562 6.48047 355 7.04297C355.445 7.59766 355.793 8.26953 356.043 9.05859C356.293 9.84766 356.418 10.6914 356.418 11.5898C356.418 13.7227 355.891 15.3711 354.836 16.5352C353.781 17.6992 352.516 18.2812 351.039 18.2812C349.57 18.2812 348.418 17.668 347.582 16.4414V18ZM347.559 11.6836C347.559 13.1758 347.762 14.2539 348.168 14.918C348.832 16.0039 349.73 16.5469 350.863 16.5469C351.785 16.5469 352.582 16.1484 353.254 15.3516C353.926 14.5469 354.262 13.3516 354.262 11.7656C354.262 10.1406 353.938 8.94141 353.289 8.16797C352.648 7.39453 351.871 7.00781 350.957 7.00781C350.035 7.00781 349.238 7.41016 348.566 8.21484C347.895 9.01172 347.559 10.168 347.559 11.6836ZM358.949 18V0.820312H361.059V18H358.949ZM372.859 13.9922L375.039 14.2617C374.695 15.5352 374.059 16.5234 373.129 17.2266C372.199 17.9297 371.012 18.2812 369.566 18.2812C367.746 18.2812 366.301 17.7227 365.23 16.6055C364.168 15.4805 363.637 13.9062 363.637 11.8828C363.637 9.78906 364.176 8.16406 365.254 7.00781C366.332 5.85156 367.73 5.27344 369.449 5.27344C371.113 5.27344 372.473 5.83984 373.527 6.97266C374.582 8.10547 375.109 9.69922 375.109 11.7539C375.109 11.8789 375.105 12.0664 375.098 12.3164H365.816C365.895 13.6836 366.281 14.7305 366.977 15.457C367.672 16.1836 368.539 16.5469 369.578 16.5469C370.352 16.5469 371.012 16.3438 371.559 15.9375C372.105 15.5312 372.539 14.8828 372.859 13.9922ZM365.934 10.582H372.883C372.789 9.53516 372.523 8.75 372.086 8.22656C371.414 7.41406 370.543 7.00781 369.473 7.00781C368.504 7.00781 367.688 7.33203 367.023 7.98047C366.367 8.62891 366.004 9.49609 365.934 10.582ZM384.883 18V7.19531H383.02V5.55469H384.883V4.23047C384.883 3.39453 384.957 2.77344 385.105 2.36719C385.309 1.82031 385.664 1.37891 386.172 1.04297C386.688 0.699219 387.406 0.527344 388.328 0.527344C388.922 0.527344 389.578 0.597656 390.297 0.738281L389.98 2.57812C389.543 2.5 389.129 2.46094 388.738 2.46094C388.098 2.46094 387.645 2.59766 387.379 2.87109C387.113 3.14453 386.98 3.65625 386.98 4.40625V5.55469H389.406V7.19531H386.98V18H384.883ZM390.273 11.7773C390.273 9.47266 390.914 7.76562 392.195 6.65625C393.266 5.73438 394.57 5.27344 396.109 5.27344C397.82 5.27344 399.219 5.83594 400.305 6.96094C401.391 8.07812 401.934 9.625 401.934 11.6016C401.934 13.2031 401.691 14.4648 401.207 15.3867C400.73 16.3008 400.031 17.0117 399.109 17.5195C398.195 18.0273 397.195 18.2812 396.109 18.2812C394.367 18.2812 392.957 17.7227 391.879 16.6055C390.809 15.4883 390.273 13.8789 390.273 11.7773ZM392.441 11.7773C392.441 13.3711 392.789 14.5664 393.484 15.3633C394.18 16.1523 395.055 16.5469 396.109 16.5469C397.156 16.5469 398.027 16.1484 398.723 15.3516C399.418 14.5547 399.766 13.3398 399.766 11.707C399.766 10.168 399.414 9.00391 398.711 8.21484C398.016 7.41797 397.148 7.01953 396.109 7.01953C395.055 7.01953 394.18 7.41406 393.484 8.20312C392.789 8.99219 392.441 10.1836 392.441 11.7773ZM404.395 18V5.55469H406.293V7.44141C406.777 6.55859 407.223 5.97656 407.629 5.69531C408.043 5.41406 408.496 5.27344 408.988 5.27344C409.699 5.27344 410.422 5.5 411.156 5.95312L410.43 7.91016C409.914 7.60547 409.398 7.45312 408.883 7.45312C408.422 7.45312 408.008 7.59375 407.641 7.875C407.273 8.14844 407.012 8.53125 406.855 9.02344C406.621 9.77344 406.504 10.5938 406.504 11.4844V18H404.395ZM2.58203 50.7695V33.5547H4.50391V35.1719C4.95703 34.5391 5.46875 34.0664 6.03906 33.7539C6.60938 33.4336 7.30078 33.2734 8.11328 33.2734C9.17578 33.2734 10.1133 33.5469 10.9258 34.0938C11.7383 34.6406 12.3516 35.4141 12.7656 36.4141C13.1797 37.4062 13.3867 38.4961 13.3867 39.6836C13.3867 40.957 13.1562 42.1055 12.6953 43.1289C12.2422 44.1445 11.5781 44.9258 10.7031 45.4727C9.83594 46.0117 8.92188 46.2812 7.96094 46.2812C7.25781 46.2812 6.625 46.1328 6.0625 45.8359C5.50781 45.5391 5.05078 45.1641 4.69141 44.7109V50.7695H2.58203ZM4.49219 39.8477C4.49219 41.4492 4.81641 42.6328 5.46484 43.3984C6.11328 44.1641 6.89844 44.5469 7.82031 44.5469C8.75781 44.5469 9.55859 44.1523 10.2227 43.3633C10.8945 42.5664 11.2305 41.3359 11.2305 39.6719C11.2305 38.0859 10.9023 36.8984 10.2461 36.1094C9.59766 35.3203 8.82031 34.9258 7.91406 34.9258C7.01562 34.9258 6.21875 35.3477 5.52344 36.1914C4.83594 37.0273 4.49219 38.2461 4.49219 39.8477ZM15.918 46V33.5547H17.8164V35.4414C18.3008 34.5586 18.7461 33.9766 19.1523 33.6953C19.5664 33.4141 20.0195 33.2734 20.5117 33.2734C21.2227 33.2734 21.9453 33.5 22.6797 33.9531L21.9531 35.9102C21.4375 35.6055 20.9219 35.4531 20.4062 35.4531C19.9453 35.4531 19.5312 35.5938 19.1641 35.875C18.7969 36.1484 18.5352 36.5312 18.3789 37.0234C18.1445 37.7734 18.0273 38.5938 18.0273 39.4844V46H15.918ZM23.1484 39.7773C23.1484 37.4727 23.7891 35.7656 25.0703 34.6562C26.1406 33.7344 27.4453 33.2734 28.9844 33.2734C30.6953 33.2734 32.0938 33.8359 33.1797 34.9609C34.2656 36.0781 34.8086 37.625 34.8086 39.6016C34.8086 41.2031 34.5664 42.4648 34.082 43.3867C33.6055 44.3008 32.9062 45.0117 31.9844 45.5195C31.0703 46.0273 30.0703 46.2812 28.9844 46.2812C27.2422 46.2812 25.832 45.7227 24.7539 44.6055C23.6836 43.4883 23.1484 41.8789 23.1484 39.7773ZM25.3164 39.7773C25.3164 41.3711 25.6641 42.5664 26.3594 43.3633C27.0547 44.1523 27.9297 44.5469 28.9844 44.5469C30.0312 44.5469 30.9023 44.1484 31.5977 43.3516C32.293 42.5547 32.6406 41.3398 32.6406 39.707C32.6406 38.168 32.2891 37.0039 31.5859 36.2148C30.8906 35.418 30.0234 35.0195 28.9844 35.0195C27.9297 35.0195 27.0547 35.4141 26.3594 36.2031C25.6641 36.9922 25.3164 38.1836 25.3164 39.7773ZM37.7969 46V35.1953H35.9336V33.5547H37.7969V32.2305C37.7969 31.3945 37.8711 30.7734 38.0195 30.3672C38.2227 29.8203 38.5781 29.3789 39.0859 29.043C39.6016 28.6992 40.3203 28.5273 41.2422 28.5273C41.8359 28.5273 42.4922 28.5977 43.2109 28.7383L42.8945 30.5781C42.457 30.5 42.043 30.4609 41.6523 30.4609C41.0117 30.4609 40.5586 30.5977 40.293 30.8711C40.0273 31.1445 39.8945 31.6562 39.8945 32.4062V33.5547H42.3203V35.1953H39.8945V46H37.7969ZM52.4922 41.9922L54.6719 42.2617C54.3281 43.5352 53.6914 44.5234 52.7617 45.2266C51.832 45.9297 50.6445 46.2812 49.1992 46.2812C47.3789 46.2812 45.9336 45.7227 44.8633 44.6055C43.8008 43.4805 43.2695 41.9062 43.2695 39.8828C43.2695 37.7891 43.8086 36.1641 44.8867 35.0078C45.9648 33.8516 47.3633 33.2734 49.082 33.2734C50.7461 33.2734 52.1055 33.8398 53.1602 34.9727C54.2148 36.1055 54.7422 37.6992 54.7422 39.7539C54.7422 39.8789 54.7383 40.0664 54.7305 40.3164H45.4492C45.5273 41.6836 45.9141 42.7305 46.6094 43.457C47.3047 44.1836 48.1719 44.5469 49.2109 44.5469C49.9844 44.5469 50.6445 44.3438 51.1914 43.9375C51.7383 43.5312 52.1719 42.8828 52.4922 41.9922ZM45.5664 38.582H52.5156C52.4219 37.5352 52.1562 36.75 51.7188 36.2266C51.0469 35.4141 50.1758 35.0078 49.1055 35.0078C48.1367 35.0078 47.3203 35.332 46.6562 35.9805C46 36.6289 45.6367 37.4961 45.5664 38.582ZM56.4883 42.2852L58.5742 41.957C58.6914 42.793 59.0156 43.4336 59.5469 43.8789C60.0859 44.3242 60.8359 44.5469 61.7969 44.5469C62.7656 44.5469 63.4844 44.3516 63.9531 43.9609C64.4219 43.5625 64.6562 43.0977 64.6562 42.5664C64.6562 42.0898 64.4492 41.7148 64.0352 41.4414C63.7461 41.2539 63.0273 41.0156 61.8789 40.7266C60.332 40.3359 59.2578 40 58.6562 39.7188C58.0625 39.4297 57.6094 39.0352 57.2969 38.5352C56.9922 38.0273 56.8398 37.4688 56.8398 36.8594C56.8398 36.3047 56.9648 35.793 57.2148 35.3242C57.4727 34.8477 57.8203 34.4531 58.2578 34.1406C58.5859 33.8984 59.0312 33.6953 59.5938 33.5312C60.1641 33.3594 60.7734 33.2734 61.4219 33.2734C62.3984 33.2734 63.2539 33.4141 63.9883 33.6953C64.7305 33.9766 65.2773 34.3594 65.6289 34.8438C65.9805 35.3203 66.2227 35.9609 66.3555 36.7656L64.293 37.0469C64.1992 36.4062 63.9258 35.9062 63.4727 35.5469C63.0273 35.1875 62.3945 35.0078 61.5742 35.0078C60.6055 35.0078 59.9141 35.168 59.5 35.4883C59.0859 35.8086 58.8789 36.1836 58.8789 36.6133C58.8789 36.8867 58.9648 37.1328 59.1367 37.3516C59.3086 37.5781 59.5781 37.7656 59.9453 37.9141C60.1562 37.9922 60.7773 38.1719 61.8086 38.4531C63.3008 38.8516 64.3398 39.1797 64.9258 39.4375C65.5195 39.6875 65.9844 40.0547 66.3203 40.5391C66.6562 41.0234 66.8242 41.625 66.8242 42.3438C66.8242 43.0469 66.6172 43.7109 66.2031 44.3359C65.7969 44.9531 65.207 45.4336 64.4336 45.7773C63.6602 46.1133 62.7852 46.2812 61.8086 46.2812C60.1914 46.2812 58.957 45.9453 58.1055 45.2734C57.2617 44.6016 56.7227 43.6055 56.4883 42.2852ZM68.4883 42.2852L70.5742 41.957C70.6914 42.793 71.0156 43.4336 71.5469 43.8789C72.0859 44.3242 72.8359 44.5469 73.7969 44.5469C74.7656 44.5469 75.4844 44.3516 75.9531 43.9609C76.4219 43.5625 76.6562 43.0977 76.6562 42.5664C76.6562 42.0898 76.4492 41.7148 76.0352 41.4414C75.7461 41.2539 75.0273 41.0156 73.8789 40.7266C72.332 40.3359 71.2578 40 70.6562 39.7188C70.0625 39.4297 69.6094 39.0352 69.2969 38.5352C68.9922 38.0273 68.8398 37.4688 68.8398 36.8594C68.8398 36.3047 68.9648 35.793 69.2148 35.3242C69.4727 34.8477 69.8203 34.4531 70.2578 34.1406C70.5859 33.8984 71.0312 33.6953 71.5938 33.5312C72.1641 33.3594 72.7734 33.2734 73.4219 33.2734C74.3984 33.2734 75.2539 33.4141 75.9883 33.6953C76.7305 33.9766 77.2773 34.3594 77.6289 34.8438C77.9805 35.3203 78.2227 35.9609 78.3555 36.7656L76.293 37.0469C76.1992 36.4062 75.9258 35.9062 75.4727 35.5469C75.0273 35.1875 74.3945 35.0078 73.5742 35.0078C72.6055 35.0078 71.9141 35.168 71.5 35.4883C71.0859 35.8086 70.8789 36.1836 70.8789 36.6133C70.8789 36.8867 70.9648 37.1328 71.1367 37.3516C71.3086 37.5781 71.5781 37.7656 71.9453 37.9141C72.1562 37.9922 72.7773 38.1719 73.8086 38.4531C75.3008 38.8516 76.3398 39.1797 76.9258 39.4375C77.5195 39.6875 77.9844 40.0547 78.3203 40.5391C78.6562 41.0234 78.8242 41.625 78.8242 42.3438C78.8242 43.0469 78.6172 43.7109 78.2031 44.3359C77.7969 44.9531 77.207 45.4336 76.4336 45.7773C75.6602 46.1133 74.7852 46.2812 73.8086 46.2812C72.1914 46.2812 70.957 45.9453 70.1055 45.2734C69.2617 44.6016 68.7227 43.6055 68.4883 42.2852ZM81.3438 31.2461V28.8203H83.4531V31.2461H81.3438ZM81.3438 46V33.5547H83.4531V46H81.3438ZM85.8906 39.7773C85.8906 37.4727 86.5312 35.7656 87.8125 34.6562C88.8828 33.7344 90.1875 33.2734 91.7266 33.2734C93.4375 33.2734 94.8359 33.8359 95.9219 34.9609C97.0078 36.0781 97.5508 37.625 97.5508 39.6016C97.5508 41.2031 97.3086 42.4648 96.8242 43.3867C96.3477 44.3008 95.6484 45.0117 94.7266 45.5195C93.8125 46.0273 92.8125 46.2812 91.7266 46.2812C89.9844 46.2812 88.5742 45.7227 87.4961 44.6055C86.4258 43.4883 85.8906 41.8789 85.8906 39.7773ZM88.0586 39.7773C88.0586 41.3711 88.4062 42.5664 89.1016 43.3633C89.7969 44.1523 90.6719 44.5469 91.7266 44.5469C92.7734 44.5469 93.6445 44.1484 94.3398 43.3516C95.0352 42.5547 95.3828 41.3398 95.3828 39.707C95.3828 38.168 95.0312 37.0039 94.3281 36.2148C93.6328 35.418 92.7656 35.0195 91.7266 35.0195C90.6719 35.0195 89.7969 35.4141 89.1016 36.2031C88.4062 36.9922 88.0586 38.1836 88.0586 39.7773ZM100.035 46V33.5547H101.934V35.3242C102.848 33.957 104.168 33.2734 105.895 33.2734C106.645 33.2734 107.332 33.4102 107.957 33.6836C108.59 33.9492 109.062 34.3008 109.375 34.7383C109.688 35.1758 109.906 35.6953 110.031 36.2969C110.109 36.6875 110.148 37.3711 110.148 38.3477V46H108.039V38.4297C108.039 37.5703 107.957 36.9297 107.793 36.5078C107.629 36.0781 107.336 35.7383 106.914 35.4883C106.5 35.2305 106.012 35.1016 105.449 35.1016C104.551 35.1016 103.773 35.3867 103.117 35.957C102.469 36.5273 102.145 37.6094 102.145 39.2031V46H100.035ZM121.516 44.4648C120.734 45.1289 119.98 45.5977 119.254 45.8711C118.535 46.1445 117.762 46.2812 116.934 46.2812C115.566 46.2812 114.516 45.9492 113.781 45.2852C113.047 44.6133 112.68 43.7578 112.68 42.7188C112.68 42.1094 112.816 41.5547 113.09 41.0547C113.371 40.5469 113.734 40.1406 114.18 39.8359C114.633 39.5312 115.141 39.3008 115.703 39.1445C116.117 39.0352 116.742 38.9297 117.578 38.8281C119.281 38.625 120.535 38.3828 121.34 38.1016C121.348 37.8125 121.352 37.6289 121.352 37.5508C121.352 36.6914 121.152 36.0859 120.754 35.7344C120.215 35.2578 119.414 35.0195 118.352 35.0195C117.359 35.0195 116.625 35.1953 116.148 35.5469C115.68 35.8906 115.332 36.5039 115.105 37.3867L113.043 37.1055C113.23 36.2227 113.539 35.5117 113.969 34.9727C114.398 34.4258 115.02 34.0078 115.832 33.7188C116.645 33.4219 117.586 33.2734 118.656 33.2734C119.719 33.2734 120.582 33.3984 121.246 33.6484C121.91 33.8984 122.398 34.2148 122.711 34.5977C123.023 34.9727 123.242 35.4492 123.367 36.0273C123.438 36.3867 123.473 37.0352 123.473 37.9727V40.7852C123.473 42.7461 123.516 43.9883 123.602 44.5117C123.695 45.0273 123.875 45.5234 124.141 46H121.938C121.719 45.5625 121.578 45.0508 121.516 44.4648ZM121.34 39.7539C120.574 40.0664 119.426 40.332 117.895 40.5508C117.027 40.6758 116.414 40.8164 116.055 40.9727C115.695 41.1289 115.418 41.3594 115.223 41.6641C115.027 41.9609 114.93 42.293 114.93 42.6602C114.93 43.2227 115.141 43.6914 115.562 44.0664C115.992 44.4414 116.617 44.6289 117.438 44.6289C118.25 44.6289 118.973 44.4531 119.605 44.1016C120.238 43.7422 120.703 43.2539 121 42.6367C121.227 42.1602 121.34 41.457 121.34 40.5273V39.7539ZM126.707 46V28.8203H128.816V46H126.707ZM131.254 42.2852L133.34 41.957C133.457 42.793 133.781 43.4336 134.312 43.8789C134.852 44.3242 135.602 44.5469 136.562 44.5469C137.531 44.5469 138.25 44.3516 138.719 43.9609C139.188 43.5625 139.422 43.0977 139.422 42.5664C139.422 42.0898 139.215 41.7148 138.801 41.4414C138.512 41.2539 137.793 41.0156 136.645 40.7266C135.098 40.3359 134.023 40 133.422 39.7188C132.828 39.4297 132.375 39.0352 132.062 38.5352C131.758 38.0273 131.605 37.4688 131.605 36.8594C131.605 36.3047 131.73 35.793 131.98 35.3242C132.238 34.8477 132.586 34.4531 133.023 34.1406C133.352 33.8984 133.797 33.6953 134.359 33.5312C134.93 33.3594 135.539 33.2734 136.188 33.2734C137.164 33.2734 138.02 33.4141 138.754 33.6953C139.496 33.9766 140.043 34.3594 140.395 34.8438C140.746 35.3203 140.988 35.9609 141.121 36.7656L139.059 37.0469C138.965 36.4062 138.691 35.9062 138.238 35.5469C137.793 35.1875 137.16 35.0078 136.34 35.0078C135.371 35.0078 134.68 35.168 134.266 35.4883C133.852 35.8086 133.645 36.1836 133.645 36.6133C133.645 36.8867 133.73 37.1328 133.902 37.3516C134.074 37.5781 134.344 37.7656 134.711 37.9141C134.922 37.9922 135.543 38.1719 136.574 38.4531C138.066 38.8516 139.105 39.1797 139.691 39.4375C140.285 39.6875 140.75 40.0547 141.086 40.5391C141.422 41.0234 141.59 41.625 141.59 42.3438C141.59 43.0469 141.383 43.7109 140.969 44.3359C140.562 44.9531 139.973 45.4336 139.199 45.7773C138.426 46.1133 137.551 46.2812 136.574 46.2812C134.957 46.2812 133.723 45.9453 132.871 45.2734C132.027 44.6016 131.488 43.6055 131.254 42.2852ZM150.789 31.2461V28.8203H152.898V31.2461H150.789ZM150.789 46V33.5547H152.898V46H150.789ZM156.121 46V33.5547H158.02V35.3242C158.934 33.957 160.254 33.2734 161.98 33.2734C162.73 33.2734 163.418 33.4102 164.043 33.6836C164.676 33.9492 165.148 34.3008 165.461 34.7383C165.773 35.1758 165.992 35.6953 166.117 36.2969C166.195 36.6875 166.234 37.3711 166.234 38.3477V46H164.125V38.4297C164.125 37.5703 164.043 36.9297 163.879 36.5078C163.715 36.0781 163.422 35.7383 163 35.4883C162.586 35.2305 162.098 35.1016 161.535 35.1016C160.637 35.1016 159.859 35.3867 159.203 35.957C158.555 36.5273 158.23 37.6094 158.23 39.2031V46H156.121ZM172.938 46L168.203 33.5547H170.43L173.102 41.0078C173.391 41.8125 173.656 42.6484 173.898 43.5156C174.086 42.8594 174.348 42.0703 174.684 41.1484L177.449 33.5547H179.617L174.906 46H172.938ZM180.695 39.7773C180.695 37.4727 181.336 35.7656 182.617 34.6562C183.688 33.7344 184.992 33.2734 186.531 33.2734C188.242 33.2734 189.641 33.8359 190.727 34.9609C191.812 36.0781 192.355 37.625 192.355 39.6016C192.355 41.2031 192.113 42.4648 191.629 43.3867C191.152 44.3008 190.453 45.0117 189.531 45.5195C188.617 46.0273 187.617 46.2812 186.531 46.2812C184.789 46.2812 183.379 45.7227 182.301 44.6055C181.23 43.4883 180.695 41.8789 180.695 39.7773ZM182.863 39.7773C182.863 41.3711 183.211 42.5664 183.906 43.3633C184.602 44.1523 185.477 44.5469 186.531 44.5469C187.578 44.5469 188.449 44.1484 189.145 43.3516C189.84 42.5547 190.188 41.3398 190.188 39.707C190.188 38.168 189.836 37.0039 189.133 36.2148C188.438 35.418 187.57 35.0195 186.531 35.0195C185.477 35.0195 184.602 35.4141 183.906 36.2031C183.211 36.9922 182.863 38.1836 182.863 39.7773ZM194.793 46V28.8203H196.902V46H194.793ZM203.641 46L198.906 33.5547H201.133L203.805 41.0078C204.094 41.8125 204.359 42.6484 204.602 43.5156C204.789 42.8594 205.051 42.0703 205.387 41.1484L208.152 33.5547H210.32L205.609 46H203.641ZM220.703 41.9922L222.883 42.2617C222.539 43.5352 221.902 44.5234 220.973 45.2266C220.043 45.9297 218.855 46.2812 217.41 46.2812C215.59 46.2812 214.145 45.7227 213.074 44.6055C212.012 43.4805 211.48 41.9062 211.48 39.8828C211.48 37.7891 212.02 36.1641 213.098 35.0078C214.176 33.8516 215.574 33.2734 217.293 33.2734C218.957 33.2734 220.316 33.8398 221.371 34.9727C222.426 36.1055 222.953 37.6992 222.953 39.7539C222.953 39.8789 222.949 40.0664 222.941 40.3164H213.66C213.738 41.6836 214.125 42.7305 214.82 43.457C215.516 44.1836 216.383 44.5469 217.422 44.5469C218.195 44.5469 218.855 44.3438 219.402 43.9375C219.949 43.5312 220.383 42.8828 220.703 41.9922ZM213.777 38.582H220.727C220.633 37.5352 220.367 36.75 219.93 36.2266C219.258 35.4141 218.387 35.0078 217.316 35.0078C216.348 35.0078 215.531 35.332 214.867 35.9805C214.211 36.6289 213.848 37.4961 213.777 38.582ZM233.617 46V44.4297C232.828 45.6641 231.668 46.2812 230.137 46.2812C229.145 46.2812 228.23 46.0078 227.395 45.4609C226.566 44.9141 225.922 44.1523 225.461 43.1758C225.008 42.1914 224.781 41.0625 224.781 39.7891C224.781 38.5469 224.988 37.4219 225.402 36.4141C225.816 35.3984 226.438 34.6211 227.266 34.082C228.094 33.543 229.02 33.2734 230.043 33.2734C230.793 33.2734 231.461 33.4336 232.047 33.7539C232.633 34.0664 233.109 34.4766 233.477 34.9844V28.8203H235.574V46H233.617ZM226.949 39.7891C226.949 41.3828 227.285 42.5742 227.957 43.3633C228.629 44.1523 229.422 44.5469 230.336 44.5469C231.258 44.5469 232.039 44.1719 232.68 43.4219C233.328 42.6641 233.652 41.5117 233.652 39.9648C233.652 38.2617 233.324 37.0117 232.668 36.2148C232.012 35.418 231.203 35.0195 230.242 35.0195C229.305 35.0195 228.52 35.4023 227.887 36.168C227.262 36.9336 226.949 38.1406 226.949 39.7891ZM245.594 31.2461V28.8203H247.703V31.2461H245.594ZM245.594 46V33.5547H247.703V46H245.594ZM250.926 46V33.5547H252.824V35.3242C253.738 33.957 255.059 33.2734 256.785 33.2734C257.535 33.2734 258.223 33.4102 258.848 33.6836C259.48 33.9492 259.953 34.3008 260.266 34.7383C260.578 35.1758 260.797 35.6953 260.922 36.2969C261 36.6875 261.039 37.3711 261.039 38.3477V46H258.93V38.4297C258.93 37.5703 258.848 36.9297 258.684 36.5078C258.52 36.0781 258.227 35.7383 257.805 35.4883C257.391 35.2305 256.902 35.1016 256.34 35.1016C255.441 35.1016 254.664 35.3867 254.008 35.957C253.359 36.5273 253.035 37.6094 253.035 39.2031V46H250.926ZM275.57 44.1133L275.875 45.9766C275.281 46.1016 274.75 46.1641 274.281 46.1641C273.516 46.1641 272.922 46.043 272.5 45.8008C272.078 45.5586 271.781 45.2422 271.609 44.8516C271.438 44.4531 271.352 43.6211 271.352 42.3555V35.1953H269.805V33.5547H271.352V30.4727L273.449 29.207V33.5547H275.57V35.1953H273.449V42.4727C273.449 43.0742 273.484 43.4609 273.555 43.6328C273.633 43.8047 273.754 43.9414 273.918 44.043C274.09 44.1445 274.332 44.1953 274.645 44.1953C274.879 44.1953 275.188 44.168 275.57 44.1133ZM277.645 46V28.8203H279.754V34.9844C280.738 33.8438 281.98 33.2734 283.48 33.2734C284.402 33.2734 285.203 33.457 285.883 33.8242C286.562 34.1836 287.047 34.6836 287.336 35.3242C287.633 35.9648 287.781 36.8945 287.781 38.1133V46H285.672V38.1133C285.672 37.0586 285.441 36.293 284.98 35.8164C284.527 35.332 283.883 35.0898 283.047 35.0898C282.422 35.0898 281.832 35.2539 281.277 35.582C280.73 35.9023 280.34 36.3398 280.105 36.8945C279.871 37.4492 279.754 38.2148 279.754 39.1914V46H277.645ZM299.523 41.9922L301.703 42.2617C301.359 43.5352 300.723 44.5234 299.793 45.2266C298.863 45.9297 297.676 46.2812 296.23 46.2812C294.41 46.2812 292.965 45.7227 291.895 44.6055C290.832 43.4805 290.301 41.9062 290.301 39.8828C290.301 37.7891 290.84 36.1641 291.918 35.0078C292.996 33.8516 294.395 33.2734 296.113 33.2734C297.777 33.2734 299.137 33.8398 300.191 34.9727C301.246 36.1055 301.773 37.6992 301.773 39.7539C301.773 39.8789 301.77 40.0664 301.762 40.3164H292.48C292.559 41.6836 292.945 42.7305 293.641 43.457C294.336 44.1836 295.203 44.5469 296.242 44.5469C297.016 44.5469 297.676 44.3438 298.223 43.9375C298.77 43.5312 299.203 42.8828 299.523 41.9922ZM292.598 38.582H299.547C299.453 37.5352 299.188 36.75 298.75 36.2266C298.078 35.4141 297.207 35.0078 296.137 35.0078C295.168 35.0078 294.352 35.332 293.688 35.9805C293.031 36.6289 292.668 37.4961 292.598 38.582ZM319.117 46V44.4297C318.328 45.6641 317.168 46.2812 315.637 46.2812C314.645 46.2812 313.73 46.0078 312.895 45.4609C312.066 44.9141 311.422 44.1523 310.961 43.1758C310.508 42.1914 310.281 41.0625 310.281 39.7891C310.281 38.5469 310.488 37.4219 310.902 36.4141C311.316 35.3984 311.938 34.6211 312.766 34.082C313.594 33.543 314.52 33.2734 315.543 33.2734C316.293 33.2734 316.961 33.4336 317.547 33.7539C318.133 34.0664 318.609 34.4766 318.977 34.9844V28.8203H321.074V46H319.117ZM312.449 39.7891C312.449 41.3828 312.785 42.5742 313.457 43.3633C314.129 44.1523 314.922 44.5469 315.836 44.5469C316.758 44.5469 317.539 44.1719 318.18 43.4219C318.828 42.6641 319.152 41.5117 319.152 39.9648C319.152 38.2617 318.824 37.0117 318.168 36.2148C317.512 35.418 316.703 35.0195 315.742 35.0195C314.805 35.0195 314.02 35.4023 313.387 36.168C312.762 36.9336 312.449 38.1406 312.449 39.7891ZM332.922 41.9922L335.102 42.2617C334.758 43.5352 334.121 44.5234 333.191 45.2266C332.262 45.9297 331.074 46.2812 329.629 46.2812C327.809 46.2812 326.363 45.7227 325.293 44.6055C324.23 43.4805 323.699 41.9062 323.699 39.8828C323.699 37.7891 324.238 36.1641 325.316 35.0078C326.395 33.8516 327.793 33.2734 329.512 33.2734C331.176 33.2734 332.535 33.8398 333.59 34.9727C334.645 36.1055 335.172 37.6992 335.172 39.7539C335.172 39.8789 335.168 40.0664 335.16 40.3164H325.879C325.957 41.6836 326.344 42.7305 327.039 43.457C327.734 44.1836 328.602 44.5469 329.641 44.5469C330.414 44.5469 331.074 44.3438 331.621 43.9375C332.168 43.5312 332.602 42.8828 332.922 41.9922ZM325.996 38.582H332.945C332.852 37.5352 332.586 36.75 332.148 36.2266C331.477 35.4141 330.605 35.0078 329.535 35.0078C328.566 35.0078 327.75 35.332 327.086 35.9805C326.43 36.6289 326.066 37.4961 325.996 38.582ZM341.219 46L336.484 33.5547H338.711L341.383 41.0078C341.672 41.8125 341.938 42.6484 342.18 43.5156C342.367 42.8594 342.629 42.0703 342.965 41.1484L345.73 33.5547H347.898L343.188 46H341.219ZM358.281 41.9922L360.461 42.2617C360.117 43.5352 359.48 44.5234 358.551 45.2266C357.621 45.9297 356.434 46.2812 354.988 46.2812C353.168 46.2812 351.723 45.7227 350.652 44.6055C349.59 43.4805 349.059 41.9062 349.059 39.8828C349.059 37.7891 349.598 36.1641 350.676 35.0078C351.754 33.8516 353.152 33.2734 354.871 33.2734C356.535 33.2734 357.895 33.8398 358.949 34.9727C360.004 36.1055 360.531 37.6992 360.531 39.7539C360.531 39.8789 360.527 40.0664 360.52 40.3164H351.238C351.316 41.6836 351.703 42.7305 352.398 43.457C353.094 44.1836 353.961 44.5469 355 44.5469C355.773 44.5469 356.434 44.3438 356.98 43.9375C357.527 43.5312 357.961 42.8828 358.281 41.9922ZM351.355 38.582H358.305C358.211 37.5352 357.945 36.75 357.508 36.2266C356.836 35.4141 355.965 35.0078 354.895 35.0078C353.926 35.0078 353.109 35.332 352.445 35.9805C351.789 36.6289 351.426 37.4961 351.355 38.582ZM363.074 46V28.8203H365.184V46H363.074ZM367.68 39.7773C367.68 37.4727 368.32 35.7656 369.602 34.6562C370.672 33.7344 371.977 33.2734 373.516 33.2734C375.227 33.2734 376.625 33.8359 377.711 34.9609C378.797 36.0781 379.34 37.625 379.34 39.6016C379.34 41.2031 379.098 42.4648 378.613 43.3867C378.137 44.3008 377.438 45.0117 376.516 45.5195C375.602 46.0273 374.602 46.2812 373.516 46.2812C371.773 46.2812 370.363 45.7227 369.285 44.6055C368.215 43.4883 367.68 41.8789 367.68 39.7773ZM369.848 39.7773C369.848 41.3711 370.195 42.5664 370.891 43.3633C371.586 44.1523 372.461 44.5469 373.516 44.5469C374.562 44.5469 375.434 44.1484 376.129 43.3516C376.824 42.5547 377.172 41.3398 377.172 39.707C377.172 38.168 376.82 37.0039 376.117 36.2148C375.422 35.418 374.555 35.0195 373.516 35.0195C372.461 35.0195 371.586 35.4141 370.891 36.2031C370.195 36.9922 369.848 38.1836 369.848 39.7773ZM381.824 50.7695V33.5547H383.746V35.1719C384.199 34.5391 384.711 34.0664 385.281 33.7539C385.852 33.4336 386.543 33.2734 387.355 33.2734C388.418 33.2734 389.355 33.5469 390.168 34.0938C390.98 34.6406 391.594 35.4141 392.008 36.4141C392.422 37.4062 392.629 38.4961 392.629 39.6836C392.629 40.957 392.398 42.1055 391.938 43.1289C391.484 44.1445 390.82 44.9258 389.945 45.4727C389.078 46.0117 388.164 46.2812 387.203 46.2812C386.5 46.2812 385.867 46.1328 385.305 45.8359C384.75 45.5391 384.293 45.1641 383.934 44.7109V50.7695H381.824ZM383.734 39.8477C383.734 41.4492 384.059 42.6328 384.707 43.3984C385.355 44.1641 386.141 44.5469 387.062 44.5469C388 44.5469 388.801 44.1523 389.465 43.3633C390.137 42.5664 390.473 41.3359 390.473 39.6719C390.473 38.0859 390.145 36.8984 389.488 36.1094C388.84 35.3203 388.062 34.9258 387.156 34.9258C386.258 34.9258 385.461 35.3477 384.766 36.1914C384.078 37.0273 383.734 38.2461 383.734 39.8477ZM395.184 46V33.5547H397.07V35.3008C397.461 34.6914 397.98 34.2031 398.629 33.8359C399.277 33.4609 400.016 33.2734 400.844 33.2734C401.766 33.2734 402.52 33.4648 403.105 33.8477C403.699 34.2305 404.117 34.7656 404.359 35.4531C405.344 34 406.625 33.2734 408.203 33.2734C409.438 33.2734 410.387 33.6172 411.051 34.3047C411.715 34.9844 412.047 36.0352 412.047 37.457V46H409.949V38.1602C409.949 37.3164 409.879 36.7109 409.738 36.3438C409.605 35.9688 409.359 35.668 409 35.4414C408.641 35.2148 408.219 35.1016 407.734 35.1016C406.859 35.1016 406.133 35.3945 405.555 35.9805C404.977 36.5586 404.688 37.4883 404.688 38.7695V46H402.578V37.9141C402.578 36.9766 402.406 36.2734 402.062 35.8047C401.719 35.3359 401.156 35.1016 400.375 35.1016C399.781 35.1016 399.23 35.2578 398.723 35.5703C398.223 35.8828 397.859 36.3398 397.633 36.9414C397.406 37.543 397.293 38.4102 397.293 39.543V46H395.184ZM423.695 41.9922L425.875 42.2617C425.531 43.5352 424.895 44.5234 423.965 45.2266C423.035 45.9297 421.848 46.2812 420.402 46.2812C418.582 46.2812 417.137 45.7227 416.066 44.6055C415.004 43.4805 414.473 41.9062 414.473 39.8828C414.473 37.7891 415.012 36.1641 416.09 35.0078C417.168 33.8516 418.566 33.2734 420.285 33.2734C421.949 33.2734 423.309 33.8398 424.363 34.9727C425.418 36.1055 425.945 37.6992 425.945 39.7539C425.945 39.8789 425.941 40.0664 425.934 40.3164H416.652C416.73 41.6836 417.117 42.7305 417.812 43.457C418.508 44.1836 419.375 44.5469 420.414 44.5469C421.188 44.5469 421.848 44.3438 422.395 43.9375C422.941 43.5312 423.375 42.8828 423.695 41.9922ZM416.77 38.582H423.719C423.625 37.5352 423.359 36.75 422.922 36.2266C422.25 35.4141 421.379 35.0078 420.309 35.0078C419.34 35.0078 418.523 35.332 417.859 35.9805C417.203 36.6289 416.84 37.4961 416.77 38.582ZM428.535 46V33.5547H430.434V35.3242C431.348 33.957 432.668 33.2734 434.395 33.2734C435.145 33.2734 435.832 33.4102 436.457 33.6836C437.09 33.9492 437.562 34.3008 437.875 34.7383C438.188 35.1758 438.406 35.6953 438.531 36.2969C438.609 36.6875 438.648 37.3711 438.648 38.3477V46H436.539V38.4297C436.539 37.5703 436.457 36.9297 436.293 36.5078C436.129 36.0781 435.836 35.7383 435.414 35.4883C435 35.2305 434.512 35.1016 433.949 35.1016C433.051 35.1016 432.273 35.3867 431.617 35.957C430.969 36.5273 430.645 37.6094 430.645 39.2031V46H428.535ZM446.5 44.1133L446.805 45.9766C446.211 46.1016 445.68 46.1641 445.211 46.1641C444.445 46.1641 443.852 46.043 443.43 45.8008C443.008 45.5586 442.711 45.2422 442.539 44.8516C442.367 44.4531 442.281 43.6211 442.281 42.3555V35.1953H440.734V33.5547H442.281V30.4727L444.379 29.207V33.5547H446.5V35.1953H444.379V42.4727C444.379 43.0742 444.414 43.4609 444.484 43.6328C444.562 43.8047 444.684 43.9414 444.848 44.043C445.02 44.1445 445.262 44.1953 445.574 44.1953C445.809 44.1953 446.117 44.168 446.5 44.1133ZM454.469 39.7773C454.469 37.4727 455.109 35.7656 456.391 34.6562C457.461 33.7344 458.766 33.2734 460.305 33.2734C462.016 33.2734 463.414 33.8359 464.5 34.9609C465.586 36.0781 466.129 37.625 466.129 39.6016C466.129 41.2031 465.887 42.4648 465.402 43.3867C464.926 44.3008 464.227 45.0117 463.305 45.5195C462.391 46.0273 461.391 46.2812 460.305 46.2812C458.562 46.2812 457.152 45.7227 456.074 44.6055C455.004 43.4883 454.469 41.8789 454.469 39.7773ZM456.637 39.7773C456.637 41.3711 456.984 42.5664 457.68 43.3633C458.375 44.1523 459.25 44.5469 460.305 44.5469C461.352 44.5469 462.223 44.1484 462.918 43.3516C463.613 42.5547 463.961 41.3398 463.961 39.707C463.961 38.168 463.609 37.0039 462.906 36.2148C462.211 35.418 461.344 35.0195 460.305 35.0195C459.25 35.0195 458.375 35.4141 457.68 36.2031C456.984 36.9922 456.637 38.1836 456.637 39.7773ZM469.117 46V35.1953H467.254V33.5547H469.117V32.2305C469.117 31.3945 469.191 30.7734 469.34 30.3672C469.543 29.8203 469.898 29.3789 470.406 29.043C470.922 28.6992 471.641 28.5273 472.562 28.5273C473.156 28.5273 473.812 28.5977 474.531 28.7383L474.215 30.5781C473.777 30.5 473.363 30.4609 472.973 30.4609C472.332 30.4609 471.879 30.5977 471.613 30.8711C471.348 31.1445 471.215 31.6562 471.215 32.4062V33.5547H473.641V35.1953H471.215V46H469.117ZM481.586 47.0312L483.637 47.3359C483.723 47.9688 483.961 48.4297 484.352 48.7188C484.875 49.1094 485.59 49.3047 486.496 49.3047C487.473 49.3047 488.227 49.1094 488.758 48.7188C489.289 48.3281 489.648 47.7812 489.836 47.0781C489.945 46.6484 489.996 45.7461 489.988 44.3711C489.066 45.457 487.918 46 486.543 46C484.832 46 483.508 45.3828 482.57 44.1484C481.633 42.9141 481.164 41.4336 481.164 39.707C481.164 38.5195 481.379 37.4258 481.809 36.4258C482.238 35.418 482.859 34.6406 483.672 34.0938C484.492 33.5469 485.453 33.2734 486.555 33.2734C488.023 33.2734 489.234 33.8672 490.188 35.0547V33.5547H492.133V44.3125C492.133 46.25 491.934 47.6211 491.535 48.4258C491.145 49.2383 490.52 49.8789 489.66 50.3477C488.809 50.8164 487.758 51.0508 486.508 51.0508C485.023 51.0508 483.824 50.7148 482.91 50.043C481.996 49.3789 481.555 48.375 481.586 47.0312ZM483.332 39.5547C483.332 41.1875 483.656 42.3789 484.305 43.1289C484.953 43.8789 485.766 44.2539 486.742 44.2539C487.711 44.2539 488.523 43.8828 489.18 43.1406C489.836 42.3906 490.164 41.2188 490.164 39.625C490.164 38.1016 489.824 36.9531 489.145 36.1797C488.473 35.4062 487.66 35.0195 486.707 35.0195C485.77 35.0195 484.973 35.4023 484.316 36.168C483.66 36.9258 483.332 38.0547 483.332 39.5547ZM495.309 46V33.5547H497.207V35.4414C497.691 34.5586 498.137 33.9766 498.543 33.6953C498.957 33.4141 499.41 33.2734 499.902 33.2734C500.613 33.2734 501.336 33.5 502.07 33.9531L501.344 35.9102C500.828 35.6055 500.312 35.4531 499.797 35.4531C499.336 35.4531 498.922 35.5938 498.555 35.875C498.188 36.1484 497.926 36.5312 497.77 37.0234C497.535 37.7734 497.418 38.5938 497.418 39.4844V46H495.309ZM511.844 41.9922L514.023 42.2617C513.68 43.5352 513.043 44.5234 512.113 45.2266C511.184 45.9297 509.996 46.2812 508.551 46.2812C506.73 46.2812 505.285 45.7227 504.215 44.6055C503.152 43.4805 502.621 41.9062 502.621 39.8828C502.621 37.7891 503.16 36.1641 504.238 35.0078C505.316 33.8516 506.715 33.2734 508.434 33.2734C510.098 33.2734 511.457 33.8398 512.512 34.9727C513.566 36.1055 514.094 37.6992 514.094 39.7539C514.094 39.8789 514.09 40.0664 514.082 40.3164H504.801C504.879 41.6836 505.266 42.7305 505.961 43.457C506.656 44.1836 507.523 44.5469 508.562 44.5469C509.336 44.5469 509.996 44.3438 510.543 43.9375C511.09 43.5312 511.523 42.8828 511.844 41.9922ZM504.918 38.582H511.867C511.773 37.5352 511.508 36.75 511.07 36.2266C510.398 35.4141 509.527 35.0078 508.457 35.0078C507.488 35.0078 506.672 35.332 506.008 35.9805C505.352 36.6289 504.988 37.4961 504.918 38.582ZM525.203 41.9922L527.383 42.2617C527.039 43.5352 526.402 44.5234 525.473 45.2266C524.543 45.9297 523.355 46.2812 521.91 46.2812C520.09 46.2812 518.645 45.7227 517.574 44.6055C516.512 43.4805 515.98 41.9062 515.98 39.8828C515.98 37.7891 516.52 36.1641 517.598 35.0078C518.676 33.8516 520.074 33.2734 521.793 33.2734C523.457 33.2734 524.816 33.8398 525.871 34.9727C526.926 36.1055 527.453 37.6992 527.453 39.7539C527.453 39.8789 527.449 40.0664 527.441 40.3164H518.16C518.238 41.6836 518.625 42.7305 519.32 43.457C520.016 44.1836 520.883 44.5469 521.922 44.5469C522.695 44.5469 523.355 44.3438 523.902 43.9375C524.449 43.5312 524.883 42.8828 525.203 41.9922ZM518.277 38.582H525.227C525.133 37.5352 524.867 36.75 524.43 36.2266C523.758 35.4141 522.887 35.0078 521.816 35.0078C520.848 35.0078 520.031 35.332 519.367 35.9805C518.711 36.6289 518.348 37.4961 518.277 38.582ZM530.043 46V33.5547H531.941V35.3242C532.855 33.957 534.176 33.2734 535.902 33.2734C536.652 33.2734 537.34 33.4102 537.965 33.6836C538.598 33.9492 539.07 34.3008 539.383 34.7383C539.695 35.1758 539.914 35.6953 540.039 36.2969C540.117 36.6875 540.156 37.3711 540.156 38.3477V46H538.047V38.4297C538.047 37.5703 537.965 36.9297 537.801 36.5078C537.637 36.0781 537.344 35.7383 536.922 35.4883C536.508 35.2305 536.02 35.1016 535.457 35.1016C534.559 35.1016 533.781 35.3867 533.125 35.957C532.477 36.5273 532.152 37.6094 532.152 39.2031V46H530.043ZM4.87891 74L1.07031 61.5547H3.25L5.23047 68.7383L5.96875 71.4102C6 71.2773 6.21484 70.4219 6.61328 68.8438L8.59375 61.5547H10.7617L12.625 68.7734L13.2461 71.1523L13.9609 68.75L16.0938 61.5547H18.1445L14.2539 74H12.0625L10.082 66.5469L9.60156 64.4258L7.08203 74H4.87891ZM28.4453 69.9922L30.625 70.2617C30.2812 71.5352 29.6445 72.5234 28.7148 73.2266C27.7852 73.9297 26.5977 74.2812 25.1523 74.2812C23.332 74.2812 21.8867 73.7227 20.8164 72.6055C19.7539 71.4805 19.2227 69.9062 19.2227 67.8828C19.2227 65.7891 19.7617 64.1641 20.8398 63.0078C21.918 61.8516 23.3164 61.2734 25.0352 61.2734C26.6992 61.2734 28.0586 61.8398 29.1133 62.9727C30.168 64.1055 30.6953 65.6992 30.6953 67.7539C30.6953 67.8789 30.6914 68.0664 30.6836 68.3164H21.4023C21.4805 69.6836 21.8672 70.7305 22.5625 71.457C23.2578 72.1836 24.125 72.5469 25.1641 72.5469C25.9375 72.5469 26.5977 72.3438 27.1445 71.9375C27.6914 71.5312 28.125 70.8828 28.4453 69.9922ZM21.5195 66.582H28.4688C28.375 65.5352 28.1094 64.75 27.6719 64.2266C27 63.4141 26.1289 63.0078 25.0586 63.0078C24.0898 63.0078 23.2734 63.332 22.6094 63.9805C21.9531 64.6289 21.5898 65.4961 21.5195 66.582ZM35.2305 74H33.2734V56.8203H35.3828V62.9492C36.2734 61.832 37.4102 61.2734 38.793 61.2734C39.5586 61.2734 40.2812 61.4297 40.9609 61.7422C41.6484 62.0469 42.2109 62.4805 42.6484 63.043C43.0938 63.5977 43.4414 64.2695 43.6914 65.0586C43.9414 65.8477 44.0664 66.6914 44.0664 67.5898C44.0664 69.7227 43.5391 71.3711 42.4844 72.5352C41.4297 73.6992 40.1641 74.2812 38.6875 74.2812C37.2188 74.2812 36.0664 73.668 35.2305 72.4414V74ZM35.207 67.6836C35.207 69.1758 35.4102 70.2539 35.8164 70.918C36.4805 72.0039 37.3789 72.5469 38.5117 72.5469C39.4336 72.5469 40.2305 72.1484 40.9023 71.3516C41.5742 70.5469 41.9102 69.3516 41.9102 67.7656C41.9102 66.1406 41.5859 64.9414 40.9375 64.168C40.2969 63.3945 39.5195 63.0078 38.6055 63.0078C37.6836 63.0078 36.8867 63.4102 36.2148 64.2148C35.543 65.0117 35.207 66.168 35.207 67.6836ZM45.8008 70.2852L47.8867 69.957C48.0039 70.793 48.3281 71.4336 48.8594 71.8789C49.3984 72.3242 50.1484 72.5469 51.1094 72.5469C52.0781 72.5469 52.7969 72.3516 53.2656 71.9609C53.7344 71.5625 53.9688 71.0977 53.9688 70.5664C53.9688 70.0898 53.7617 69.7148 53.3477 69.4414C53.0586 69.2539 52.3398 69.0156 51.1914 68.7266C49.6445 68.3359 48.5703 68 47.9688 67.7188C47.375 67.4297 46.9219 67.0352 46.6094 66.5352C46.3047 66.0273 46.1523 65.4688 46.1523 64.8594C46.1523 64.3047 46.2773 63.793 46.5273 63.3242C46.7852 62.8477 47.1328 62.4531 47.5703 62.1406C47.8984 61.8984 48.3438 61.6953 48.9062 61.5312C49.4766 61.3594 50.0859 61.2734 50.7344 61.2734C51.7109 61.2734 52.5664 61.4141 53.3008 61.6953C54.043 61.9766 54.5898 62.3594 54.9414 62.8438C55.293 63.3203 55.5352 63.9609 55.668 64.7656L53.6055 65.0469C53.5117 64.4062 53.2383 63.9062 52.7852 63.5469C52.3398 63.1875 51.707 63.0078 50.8867 63.0078C49.918 63.0078 49.2266 63.168 48.8125 63.4883C48.3984 63.8086 48.1914 64.1836 48.1914 64.6133C48.1914 64.8867 48.2773 65.1328 48.4492 65.3516C48.6211 65.5781 48.8906 65.7656 49.2578 65.9141C49.4688 65.9922 50.0898 66.1719 51.1211 66.4531C52.6133 66.8516 53.6523 67.1797 54.2383 67.4375C54.832 67.6875 55.2969 68.0547 55.6328 68.5391C55.9688 69.0234 56.1367 69.625 56.1367 70.3438C56.1367 71.0469 55.9297 71.7109 55.5156 72.3359C55.1094 72.9531 54.5195 73.4336 53.7461 73.7773C52.9727 74.1133 52.0977 74.2812 51.1211 74.2812C49.5039 74.2812 48.2695 73.9453 47.418 73.2734C46.5742 72.6016 46.0352 71.6055 45.8008 70.2852ZM58.6562 59.2461V56.8203H60.7656V59.2461H58.6562ZM58.6562 74V61.5547H60.7656V74H58.6562ZM68.5938 72.1133L68.8984 73.9766C68.3047 74.1016 67.7734 74.1641 67.3047 74.1641C66.5391 74.1641 65.9453 74.043 65.5234 73.8008C65.1016 73.5586 64.8047 73.2422 64.6328 72.8516C64.4609 72.4531 64.375 71.6211 64.375 70.3555V63.1953H62.8281V61.5547H64.375V58.4727L66.4727 57.207V61.5547H68.5938V63.1953H66.4727V70.4727C66.4727 71.0742 66.5078 71.4609 66.5781 71.6328C66.6562 71.8047 66.7773 71.9414 66.9414 72.043C67.1133 72.1445 67.3555 72.1953 67.668 72.1953C67.9023 72.1953 68.2109 72.168 68.5938 72.1133ZM79.1875 69.9922L81.3672 70.2617C81.0234 71.5352 80.3867 72.5234 79.457 73.2266C78.5273 73.9297 77.3398 74.2812 75.8945 74.2812C74.0742 74.2812 72.6289 73.7227 71.5586 72.6055C70.4961 71.4805 69.9648 69.9062 69.9648 67.8828C69.9648 65.7891 70.5039 64.1641 71.582 63.0078C72.6602 61.8516 74.0586 61.2734 75.7773 61.2734C77.4414 61.2734 78.8008 61.8398 79.8555 62.9727C80.9102 64.1055 81.4375 65.6992 81.4375 67.7539C81.4375 67.8789 81.4336 68.0664 81.4258 68.3164H72.1445C72.2227 69.6836 72.6094 70.7305 73.3047 71.457C74 72.1836 74.8672 72.5469 75.9062 72.5469C76.6797 72.5469 77.3398 72.3438 77.8867 71.9375C78.4336 71.5312 78.8672 70.8828 79.1875 69.9922ZM72.2617 66.582H79.2109C79.1172 65.5352 78.8516 64.75 78.4141 64.2266C77.7422 63.4141 76.8711 63.0078 75.8008 63.0078C74.832 63.0078 74.0156 63.332 73.3516 63.9805C72.6953 64.6289 72.332 65.4961 72.2617 66.582ZM83.1836 70.2852L85.2695 69.957C85.3867 70.793 85.7109 71.4336 86.2422 71.8789C86.7812 72.3242 87.5312 72.5469 88.4922 72.5469C89.4609 72.5469 90.1797 72.3516 90.6484 71.9609C91.1172 71.5625 91.3516 71.0977 91.3516 70.5664C91.3516 70.0898 91.1445 69.7148 90.7305 69.4414C90.4414 69.2539 89.7227 69.0156 88.5742 68.7266C87.0273 68.3359 85.9531 68 85.3516 67.7188C84.7578 67.4297 84.3047 67.0352 83.9922 66.5352C83.6875 66.0273 83.5352 65.4688 83.5352 64.8594C83.5352 64.3047 83.6602 63.793 83.9102 63.3242C84.168 62.8477 84.5156 62.4531 84.9531 62.1406C85.2812 61.8984 85.7266 61.6953 86.2891 61.5312C86.8594 61.3594 87.4688 61.2734 88.1172 61.2734C89.0938 61.2734 89.9492 61.4141 90.6836 61.6953C91.4258 61.9766 91.9727 62.3594 92.3242 62.8438C92.6758 63.3203 92.918 63.9609 93.0508 64.7656L90.9883 65.0469C90.8945 64.4062 90.6211 63.9062 90.168 63.5469C89.7227 63.1875 89.0898 63.0078 88.2695 63.0078C87.3008 63.0078 86.6094 63.168 86.1953 63.4883C85.7812 63.8086 85.5742 64.1836 85.5742 64.6133C85.5742 64.8867 85.6602 65.1328 85.832 65.3516C86.0039 65.5781 86.2734 65.7656 86.6406 65.9141C86.8516 65.9922 87.4727 66.1719 88.5039 66.4531C89.9961 66.8516 91.0352 67.1797 91.6211 67.4375C92.2148 67.6875 92.6797 68.0547 93.0156 68.5391C93.3516 69.0234 93.5195 69.625 93.5195 70.3438C93.5195 71.0469 93.3125 71.7109 92.8984 72.3359C92.4922 72.9531 91.9023 73.4336 91.1289 73.7773C90.3555 74.1133 89.4805 74.2812 88.5039 74.2812C86.8867 74.2812 85.6523 73.9453 84.8008 73.2734C83.957 72.6016 83.418 71.6055 83.1836 70.2852ZM96.625 74V71.5977H99.0273V74H96.625ZM109.656 74V56.8203H115.574C116.91 56.8203 117.93 56.9023 118.633 57.0664C119.617 57.293 120.457 57.7031 121.152 58.2969C122.059 59.0625 122.734 60.043 123.18 61.2383C123.633 62.4258 123.859 63.7852 123.859 65.3164C123.859 66.6211 123.707 67.7773 123.402 68.7852C123.098 69.793 122.707 70.6289 122.23 71.293C121.754 71.9492 121.23 72.4688 120.66 72.8516C120.098 73.2266 119.414 73.5117 118.609 73.707C117.812 73.9023 116.895 74 115.855 74H109.656ZM111.93 71.9727H115.598C116.73 71.9727 117.617 71.8672 118.258 71.6562C118.906 71.4453 119.422 71.1484 119.805 70.7656C120.344 70.2266 120.762 69.5039 121.059 68.5977C121.363 67.6836 121.516 66.5781 121.516 65.2812C121.516 63.4844 121.219 62.1055 120.625 61.1445C120.039 60.1758 119.324 59.5273 118.48 59.1992C117.871 58.9648 116.891 58.8477 115.539 58.8477H111.93V71.9727ZM125.945 67.7773C125.945 65.4727 126.586 63.7656 127.867 62.6562C128.938 61.7344 130.242 61.2734 131.781 61.2734C133.492 61.2734 134.891 61.8359 135.977 62.9609C137.062 64.0781 137.605 65.625 137.605 67.6016C137.605 69.2031 137.363 70.4648 136.879 71.3867C136.402 72.3008 135.703 73.0117 134.781 73.5195C133.867 74.0273 132.867 74.2812 131.781 74.2812C130.039 74.2812 128.629 73.7227 127.551 72.6055C126.48 71.4883 125.945 69.8789 125.945 67.7773ZM128.113 67.7773C128.113 69.3711 128.461 70.5664 129.156 71.3633C129.852 72.1523 130.727 72.5469 131.781 72.5469C132.828 72.5469 133.699 72.1484 134.395 71.3516C135.09 70.5547 135.438 69.3398 135.438 67.707C135.438 66.168 135.086 65.0039 134.383 64.2148C133.688 63.418 132.82 63.0195 131.781 63.0195C130.727 63.0195 129.852 63.4141 129.156 64.2031C128.461 64.9922 128.113 66.1836 128.113 67.7773ZM142.387 74L138.578 61.5547H140.758L142.738 68.7383L143.477 71.4102C143.508 71.2773 143.723 70.4219 144.121 68.8438L146.102 61.5547H148.27L150.133 68.7734L150.754 71.1523L151.469 68.75L153.602 61.5547H155.652L151.762 74H149.57L147.59 66.5469L147.109 64.4258L144.59 74H142.387ZM157.434 74V61.5547H159.332V63.3242C160.246 61.957 161.566 61.2734 163.293 61.2734C164.043 61.2734 164.73 61.4102 165.355 61.6836C165.988 61.9492 166.461 62.3008 166.773 62.7383C167.086 63.1758 167.305 63.6953 167.43 64.2969C167.508 64.6875 167.547 65.3711 167.547 66.3477V74H165.438V66.4297C165.438 65.5703 165.355 64.9297 165.191 64.5078C165.027 64.0781 164.734 63.7383 164.312 63.4883C163.898 63.2305 163.41 63.1016 162.848 63.1016C161.949 63.1016 161.172 63.3867 160.516 63.957C159.867 64.5273 159.543 65.6094 159.543 67.2031V74H157.434ZM170.746 74V56.8203H172.855V74H170.746ZM175.352 67.7773C175.352 65.4727 175.992 63.7656 177.273 62.6562C178.344 61.7344 179.648 61.2734 181.188 61.2734C182.898 61.2734 184.297 61.8359 185.383 62.9609C186.469 64.0781 187.012 65.625 187.012 67.6016C187.012 69.2031 186.77 70.4648 186.285 71.3867C185.809 72.3008 185.109 73.0117 184.188 73.5195C183.273 74.0273 182.273 74.2812 181.188 74.2812C179.445 74.2812 178.035 73.7227 176.957 72.6055C175.887 71.4883 175.352 69.8789 175.352 67.7773ZM177.52 67.7773C177.52 69.3711 177.867 70.5664 178.562 71.3633C179.258 72.1523 180.133 72.5469 181.188 72.5469C182.234 72.5469 183.105 72.1484 183.801 71.3516C184.496 70.5547 184.844 69.3398 184.844 67.707C184.844 66.168 184.492 65.0039 183.789 64.2148C183.094 63.418 182.227 63.0195 181.188 63.0195C180.133 63.0195 179.258 63.4141 178.562 64.2031C177.867 64.9922 177.52 66.1836 177.52 67.7773ZM197.617 72.4648C196.836 73.1289 196.082 73.5977 195.355 73.8711C194.637 74.1445 193.863 74.2812 193.035 74.2812C191.668 74.2812 190.617 73.9492 189.883 73.2852C189.148 72.6133 188.781 71.7578 188.781 70.7188C188.781 70.1094 188.918 69.5547 189.191 69.0547C189.473 68.5469 189.836 68.1406 190.281 67.8359C190.734 67.5312 191.242 67.3008 191.805 67.1445C192.219 67.0352 192.844 66.9297 193.68 66.8281C195.383 66.625 196.637 66.3828 197.441 66.1016C197.449 65.8125 197.453 65.6289 197.453 65.5508C197.453 64.6914 197.254 64.0859 196.855 63.7344C196.316 63.2578 195.516 63.0195 194.453 63.0195C193.461 63.0195 192.727 63.1953 192.25 63.5469C191.781 63.8906 191.434 64.5039 191.207 65.3867L189.145 65.1055C189.332 64.2227 189.641 63.5117 190.07 62.9727C190.5 62.4258 191.121 62.0078 191.934 61.7188C192.746 61.4219 193.688 61.2734 194.758 61.2734C195.82 61.2734 196.684 61.3984 197.348 61.6484C198.012 61.8984 198.5 62.2148 198.812 62.5977C199.125 62.9727 199.344 63.4492 199.469 64.0273C199.539 64.3867 199.574 65.0352 199.574 65.9727V68.7852C199.574 70.7461 199.617 71.9883 199.703 72.5117C199.797 73.0273 199.977 73.5234 200.242 74H198.039C197.82 73.5625 197.68 73.0508 197.617 72.4648ZM197.441 67.7539C196.676 68.0664 195.527 68.332 193.996 68.5508C193.129 68.6758 192.516 68.8164 192.156 68.9727C191.797 69.1289 191.52 69.3594 191.324 69.6641C191.129 69.9609 191.031 70.293 191.031 70.6602C191.031 71.2227 191.242 71.6914 191.664 72.0664C192.094 72.4414 192.719 72.6289 193.539 72.6289C194.352 72.6289 195.074 72.4531 195.707 72.1016C196.34 71.7422 196.805 71.2539 197.102 70.6367C197.328 70.1602 197.441 69.457 197.441 68.5273V67.7539ZM210.93 74V72.4297C210.141 73.6641 208.98 74.2812 207.449 74.2812C206.457 74.2812 205.543 74.0078 204.707 73.4609C203.879 72.9141 203.234 72.1523 202.773 71.1758C202.32 70.1914 202.094 69.0625 202.094 67.7891C202.094 66.5469 202.301 65.4219 202.715 64.4141C203.129 63.3984 203.75 62.6211 204.578 62.082C205.406 61.543 206.332 61.2734 207.355 61.2734C208.105 61.2734 208.773 61.4336 209.359 61.7539C209.945 62.0664 210.422 62.4766 210.789 62.9844V56.8203H212.887V74H210.93ZM204.262 67.7891C204.262 69.3828 204.598 70.5742 205.27 71.3633C205.941 72.1523 206.734 72.5469 207.648 72.5469C208.57 72.5469 209.352 72.1719 209.992 71.4219C210.641 70.6641 210.965 69.5117 210.965 67.9648C210.965 66.2617 210.637 65.0117 209.98 64.2148C209.324 63.418 208.516 63.0195 207.555 63.0195C206.617 63.0195 205.832 63.4023 205.199 64.168C204.574 64.9336 204.262 66.1406 204.262 67.7891ZM222.871 74V61.5547H224.77V63.4414C225.254 62.5586 225.699 61.9766 226.105 61.6953C226.52 61.4141 226.973 61.2734 227.465 61.2734C228.176 61.2734 228.898 61.5 229.633 61.9531L228.906 63.9102C228.391 63.6055 227.875 63.4531 227.359 63.4531C226.898 63.4531 226.484 63.5938 226.117 63.875C225.75 64.1484 225.488 64.5312 225.332 65.0234C225.098 65.7734 224.98 66.5938 224.98 67.4844V74H222.871ZM239.406 69.9922L241.586 70.2617C241.242 71.5352 240.605 72.5234 239.676 73.2266C238.746 73.9297 237.559 74.2812 236.113 74.2812C234.293 74.2812 232.848 73.7227 231.777 72.6055C230.715 71.4805 230.184 69.9062 230.184 67.8828C230.184 65.7891 230.723 64.1641 231.801 63.0078C232.879 61.8516 234.277 61.2734 235.996 61.2734C237.66 61.2734 239.02 61.8398 240.074 62.9727C241.129 64.1055 241.656 65.6992 241.656 67.7539C241.656 67.8789 241.652 68.0664 241.645 68.3164H232.363C232.441 69.6836 232.828 70.7305 233.523 71.457C234.219 72.1836 235.086 72.5469 236.125 72.5469C236.898 72.5469 237.559 72.3438 238.105 71.9375C238.652 71.5312 239.086 70.8828 239.406 69.9922ZM232.48 66.582H239.43C239.336 65.5352 239.07 64.75 238.633 64.2266C237.961 63.4141 237.09 63.0078 236.02 63.0078C235.051 63.0078 234.234 63.332 233.57 63.9805C232.914 64.6289 232.551 65.4961 232.48 66.582ZM244.246 78.7695V61.5547H246.168V63.1719C246.621 62.5391 247.133 62.0664 247.703 61.7539C248.273 61.4336 248.965 61.2734 249.777 61.2734C250.84 61.2734 251.777 61.5469 252.59 62.0938C253.402 62.6406 254.016 63.4141 254.43 64.4141C254.844 65.4062 255.051 66.4961 255.051 67.6836C255.051 68.957 254.82 70.1055 254.359 71.1289C253.906 72.1445 253.242 72.9258 252.367 73.4727C251.5 74.0117 250.586 74.2812 249.625 74.2812C248.922 74.2812 248.289 74.1328 247.727 73.8359C247.172 73.5391 246.715 73.1641 246.355 72.7109V78.7695H244.246ZM246.156 67.8477C246.156 69.4492 246.48 70.6328 247.129 71.3984C247.777 72.1641 248.562 72.5469 249.484 72.5469C250.422 72.5469 251.223 72.1523 251.887 71.3633C252.559 70.5664 252.895 69.3359 252.895 67.6719C252.895 66.0859 252.566 64.8984 251.91 64.1094C251.262 63.3203 250.484 62.9258 249.578 62.9258C248.68 62.9258 247.883 63.3477 247.188 64.1914C246.5 65.0273 246.156 66.2461 246.156 67.8477ZM256.82 67.7773C256.82 65.4727 257.461 63.7656 258.742 62.6562C259.812 61.7344 261.117 61.2734 262.656 61.2734C264.367 61.2734 265.766 61.8359 266.852 62.9609C267.938 64.0781 268.48 65.625 268.48 67.6016C268.48 69.2031 268.238 70.4648 267.754 71.3867C267.277 72.3008 266.578 73.0117 265.656 73.5195C264.742 74.0273 263.742 74.2812 262.656 74.2812C260.914 74.2812 259.504 73.7227 258.426 72.6055C257.355 71.4883 256.82 69.8789 256.82 67.7773ZM258.988 67.7773C258.988 69.3711 259.336 70.5664 260.031 71.3633C260.727 72.1523 261.602 72.5469 262.656 72.5469C263.703 72.5469 264.574 72.1484 265.27 71.3516C265.965 70.5547 266.312 69.3398 266.312 67.707C266.312 66.168 265.961 65.0039 265.258 64.2148C264.562 63.418 263.695 63.0195 262.656 63.0195C261.602 63.0195 260.727 63.4141 260.031 64.2031C259.336 64.9922 258.988 66.1836 258.988 67.7773ZM270.941 74V61.5547H272.84V63.4414C273.324 62.5586 273.77 61.9766 274.176 61.6953C274.59 61.4141 275.043 61.2734 275.535 61.2734C276.246 61.2734 276.969 61.5 277.703 61.9531L276.977 63.9102C276.461 63.6055 275.945 63.4531 275.43 63.4531C274.969 63.4531 274.555 63.5938 274.188 63.875C273.82 64.1484 273.559 64.5312 273.402 65.0234C273.168 65.7734 273.051 66.5938 273.051 67.4844V74H270.941ZM283.562 72.1133L283.867 73.9766C283.273 74.1016 282.742 74.1641 282.273 74.1641C281.508 74.1641 280.914 74.043 280.492 73.8008C280.07 73.5586 279.773 73.2422 279.602 72.8516C279.43 72.4531 279.344 71.6211 279.344 70.3555V63.1953H277.797V61.5547H279.344V58.4727L281.441 57.207V61.5547H283.562V63.1953H281.441V70.4727C281.441 71.0742 281.477 71.4609 281.547 71.6328C281.625 71.8047 281.746 71.9414 281.91 72.043C282.082 72.1445 282.324 72.1953 282.637 72.1953C282.871 72.1953 283.18 72.168 283.562 72.1133ZM292.492 74V56.8203H295.961V63.582H302.758V56.8203H306.227V74H302.758V66.4883H295.961V74H292.492ZM309.824 74V56.8203H322.562V59.7266H313.293V63.5352H321.918V66.4297H313.293V71.1055H322.891V74H309.824ZM325.844 74V56.8203H333.145C334.98 56.8203 336.312 56.9766 337.141 57.2891C337.977 57.5938 338.645 58.1406 339.145 58.9297C339.645 59.7188 339.895 60.6211 339.895 61.6367C339.895 62.9258 339.516 63.9922 338.758 64.8359C338 65.6719 336.867 66.1992 335.359 66.418C336.109 66.8555 336.727 67.3359 337.211 67.8594C337.703 68.3828 338.363 69.3125 339.191 70.6484L341.289 74H337.141L334.633 70.2617C333.742 68.9258 333.133 68.0859 332.805 67.7422C332.477 67.3906 332.129 67.1523 331.762 67.0273C331.395 66.8945 330.812 66.8281 330.016 66.8281H329.312V74H325.844ZM329.312 64.0859H331.879C333.543 64.0859 334.582 64.0156 334.996 63.875C335.41 63.7344 335.734 63.4922 335.969 63.1484C336.203 62.8047 336.32 62.375 336.32 61.8594C336.32 61.2812 336.164 60.8164 335.852 60.4648C335.547 60.1055 335.113 59.8789 334.551 59.7852C334.27 59.7461 333.426 59.7266 332.02 59.7266H329.312V64.0859ZM343.176 74V56.8203H355.914V59.7266H346.645V63.5352H355.27V66.4297H346.645V71.1055H356.242V74H343.176ZM359.617 74V71.5977H362.02V74H359.617Z" fill="white"/>
</svg>
