<svg width="392" height="440" viewBox="0 0 392 440" fill="none" xmlns="http://www.w3.org/2000/svg">
<path d="M376.403 0.856445H8.76356C4.22507 0.856445 0.545898 4.54283 0.545898 9.09022V296.096C0.545898 300.643 4.22507 304.329 8.76356 304.329H376.403C380.941 304.329 384.62 300.643 384.62 296.096V9.09022C384.62 4.54283 380.941 0.856445 376.403 0.856445Z" fill="#0E6835"/>
<path d="M370.443 13.1226H15.3659C12.5189 13.1226 10.2109 15.4351 10.2109 18.2877V290.121C10.2109 292.974 12.5189 295.286 15.3659 295.286H370.443C373.29 295.286 375.598 292.974 375.598 290.121V18.2877C375.598 15.4351 373.29 13.1226 370.443 13.1226Z" fill="white"/>
<path d="M299.058 150.147C298.72 149.886 298.416 149.584 298.154 149.247C296.646 147.313 296.748 143.002 298.358 140.552C300.081 137.93 304.323 139.353 304.505 139.414L304.086 140.634L304.296 140.024L304.086 140.634C304.05 140.634 300.61 139.474 299.433 141.264C298.055 143.363 298.115 147.095 299.157 148.446C299.458 148.849 299.845 149.181 300.289 149.418C300.733 149.654 301.224 149.789 301.727 149.813L301.76 151.106C300.781 151.081 299.835 150.745 299.058 150.147Z" fill="#0D6735"/>
<path d="M296.944 166.178C296.944 166.178 292.972 152.862 293.402 148.777C293.832 144.692 299.309 143.504 299.417 144.258C299.524 145.012 296.591 146.744 296.384 148.023C296.178 149.302 300.023 150.608 301.972 154.157C303.921 157.707 301.528 161.8 301.972 163.736C302.344 165.201 302.815 166.639 303.381 168.04L296.944 166.178Z" fill="#F3B8AA"/>
<path d="M317.815 191.412C317.815 191.412 316.387 215.058 304.68 212.595C298.48 211.291 295.803 199.03 294.689 187.424C293.703 177.107 293.945 167.305 294.044 166.178C294.262 163.783 304.795 164.482 306.29 166.178C307.784 167.874 309.297 192.031 309.939 193.984C310.582 195.937 317.631 191.528 317.813 191.418L317.815 191.412Z" fill="white"/>
<path d="M317.815 191.412C317.815 191.412 316.387 215.058 304.68 212.595C298.48 211.291 295.803 199.03 294.689 187.424C294.753 187.7 298.824 206.482 303.39 209.639C307.955 212.796 317.672 191.724 317.812 191.41L317.815 191.412Z" fill="#E6E8EF"/>
<path d="M324.737 132.79C324.568 132.79 324.399 132.77 324.235 132.729C322.306 132.262 321.429 129.232 322.248 125.824C322.571 124.354 323.248 122.985 324.219 121.835C325.156 120.8 326.198 120.358 327.155 120.59C329.084 121.056 329.958 124.086 329.139 127.495C328.818 128.966 328.141 130.335 327.168 131.483C326.391 132.34 325.539 132.79 324.737 132.79ZM326.667 121.189C326.041 121.189 325.357 121.567 324.712 122.294C323.812 123.362 323.186 124.634 322.89 126.001C322.179 128.95 322.871 131.751 324.398 132.121C325.117 132.295 325.936 131.92 326.705 131.069C327.605 130 328.23 128.728 328.527 127.362C329.236 124.412 328.544 121.612 327.017 121.241C326.896 121.205 326.771 121.185 326.645 121.181L326.667 121.189Z" fill="#0D4C26"/>
<path d="M350.572 167.766C350.572 167.766 330.49 165.504 330.564 163.09C330.581 162.538 330.633 161.878 330.688 161.124C330.889 158.53 331.129 155.047 330.007 153.158C329.844 152.878 329.627 152.634 329.368 152.44C329.109 152.246 328.813 152.106 328.499 152.028C326.782 151.57 324.428 152.506 322.986 152.028C321.056 151.382 319.281 140.082 319.766 138.063C320.251 136.044 319.444 135.643 319.121 134.674C318.799 133.704 319.604 132.898 321.134 131.848C322.664 130.799 323.063 128.534 324.114 123.697C325.164 118.861 332.411 114.657 332.411 114.657C332.411 114.657 350.561 112.561 357.006 129.777C363.451 146.993 350.572 167.766 350.572 167.766Z" fill="#F3B8AA"/>
<path d="M175.479 285.851C175.479 285.851 170.966 286.82 169.894 288.864C168.821 290.908 169.249 293.601 167.413 294.352C165.577 295.104 154.953 293.924 152.59 293.062C150.228 292.201 140.56 294.72 137.233 294.593C133.905 294.466 132.182 290.372 132.29 289.187C132.397 288.002 134.01 288.005 135.19 288.436C136.37 288.867 140.56 288.649 143.03 287.466C145.5 286.284 154.845 285.958 157.745 284.453C160.645 282.948 164.849 279.719 164.849 279.719L175.479 285.851Z" fill="#F3B8AA"/>
<path d="M304.39 224.577C304.39 224.577 261.057 194.81 257.421 197.069C253.785 199.329 209.954 244.527 196.422 254.86C182.889 265.193 162.911 277.786 164.847 279.719C166.782 281.653 175.479 285.851 175.479 285.851C175.479 285.851 198.677 275.844 217.381 267.127C236.085 258.41 255.602 241.439 257.435 242.914C259.268 244.389 266.678 254.214 266.678 254.214C266.678 254.214 308.905 248.088 313.721 243.124C318.537 238.161 304.39 224.577 304.39 224.577Z" fill="#0D6735"/>
<path d="M358.627 239.501C351.54 255.04 338.131 283.02 334.848 288.403C331.565 293.787 328.557 295.289 328.557 295.289C328.557 295.289 330.917 290.986 330.917 283.882C330.917 276.778 331.777 266.878 325.55 257.623C319.323 248.367 304.39 237.379 304.39 237.379C304.39 237.379 314.201 226.607 320.99 216.987C321.782 217.017 322.369 217.003 322.675 217.161C323.995 217.857 330.247 213.366 330.247 213.366L334.573 198.959C334.573 198.959 328.637 200.293 324.836 197.301C321.034 194.31 321.225 193.023 317.815 191.413C315.587 190.363 315.529 188.805 315.758 187.852C315.857 187.576 315.968 187.3 316.081 187.007C318.366 181.207 323.755 169.606 326.779 165.678C330.639 160.673 342.727 161.811 344.974 161.811C347.22 161.811 369.566 166.816 370.211 184.894C370.856 202.972 365.717 223.958 358.627 239.501Z" fill="#F15D6F"/>
<path d="M341.867 146.255C341.768 146.578 339.552 153.489 336.718 156.182C334.82 157.961 332.806 159.612 330.689 161.123C330.89 158.53 331.13 155.047 330.008 153.157C329.845 152.877 329.627 152.633 329.368 152.439C329.109 152.245 328.814 152.105 328.5 152.028C328.911 152.061 336.809 152.666 338.035 151.517C339.262 150.368 341.713 146.492 341.867 146.255Z" fill="#DB7489"/>
<path d="M269.215 239.547C269.215 239.547 258.852 244.279 257.24 247.184C255.627 250.09 254.447 251.275 254.555 252.673C254.627 253.392 254.627 254.116 254.555 254.835C254.555 254.835 263.376 256.769 271.745 252.673C280.115 248.576 284.627 244.168 281.181 241.588C277.736 239.009 269.215 239.547 269.215 239.547Z" fill="#F3B8AA"/>
<path d="M243.169 411.512C243.169 411.512 242.527 420.074 244.942 423.778C247.356 427.482 246.32 430.559 244.018 432.172C241.716 433.785 233.342 432.172 229.477 433.625C225.612 435.078 223.354 438.307 219.327 438.47C215.299 438.633 208.049 437.823 209.017 435.564C209.984 433.305 211.754 432.818 214.494 433.142C217.234 433.465 222.874 425.877 227.624 422.165C232.374 418.453 234.392 414.092 234.472 411.512C234.552 408.932 243.169 411.512 243.169 411.512Z" fill="#F3B8AA"/>
<path d="M298.912 238.252C298.912 238.252 243.503 255.04 239.197 265.801C234.891 276.562 237.692 304.542 237.267 319.178C236.843 333.814 234.475 411.512 234.475 411.512C234.475 411.512 243.172 412.802 243.172 411.512C243.172 410.222 261.217 351.141 264.44 331.135C267.662 311.129 270.882 295.3 270.882 295.3H328.56C328.56 295.3 336.938 283.031 334.349 268.182C331.761 253.333 309.225 232.548 298.912 238.252Z" fill="#0F8D45"/>
<path d="M334.573 198.959L334.462 199.392C334.041 201.027 332.472 207.018 330.518 213.156C328.502 219.492 326.077 225.983 324.078 228.016C319.805 232.355 275.731 247.127 274.962 245.654C274.193 244.182 265.829 237.567 270.257 234.634C274.684 231.7 305.487 220.318 308.042 215.904C310.598 211.49 316.776 190.507 317.815 191.415C318.854 192.324 330.27 198.986 334.573 198.959Z" fill="white"/>
<path d="M346.385 182.939C346.385 184.447 338.815 204.03 337.338 206.612C336.196 208.609 332.252 211.805 330.518 213.159C332.472 207.021 334.041 201.03 334.462 199.395C335.651 199.892 337.321 200.5 337.338 199.947C337.362 199.08 346.385 181.43 346.385 182.939Z" fill="#B2386A"/>
<path d="M326.667 134.325C326.496 134.325 326.326 134.304 326.16 134.265C324.23 133.798 323.356 130.765 324.175 127.36C324.496 125.888 325.173 124.519 326.146 123.371C327.08 122.335 328.125 121.893 329.079 122.123C331.009 122.589 331.885 125.622 331.067 129.028C330.325 132.135 328.464 134.325 326.667 134.325ZM328.577 122.725C327.952 122.725 327.271 123.106 326.623 123.83C325.723 124.897 325.098 126.169 324.801 127.534C324.092 130.483 324.784 133.287 326.311 133.657C327.838 134.027 329.73 131.845 330.446 128.898C331.158 125.948 330.466 123.145 328.938 122.774C328.827 122.741 328.712 122.721 328.597 122.714L328.577 122.725Z" fill="#0D4C26"/>
<path d="M330.893 128.664L330.656 129.266L342.369 133.898L342.606 133.297L330.893 128.664Z" fill="#0D4C26"/>
<path d="M325.027 126.752L324.407 126.572C324.421 126.545 324.429 126.514 324.429 126.483C324.429 126.451 324.421 126.421 324.407 126.393C324.28 126.213 323.855 126.117 323.665 126.117L323.715 125.473C323.806 125.473 324.602 125.556 324.936 126.026C325.006 126.132 325.05 126.252 325.066 126.378C325.082 126.504 325.068 126.632 325.027 126.752Z" fill="#0D4C26"/>
<path d="M335.182 162.303C335.182 162.303 338.796 157.715 342.592 158.383C346.388 159.052 351.54 160.513 351.54 160.983C351.54 161.452 350.611 163.496 350.217 163.496C349.822 163.496 337.514 164.007 335.182 162.303Z" fill="#B2386A"/>
<path d="M323.232 179.384C323.265 179.384 325.713 179.06 329.338 180.121C328.503 182.286 327.78 184.494 327.172 186.733L325.989 191.47C325.979 191.511 325.977 191.554 325.983 191.596C325.989 191.638 326.003 191.678 326.025 191.714C326.047 191.75 326.076 191.782 326.11 191.807C326.144 191.832 326.182 191.85 326.223 191.86C326.25 191.864 326.277 191.864 326.303 191.86C326.375 191.86 326.445 191.836 326.502 191.791C326.558 191.747 326.598 191.684 326.615 191.614L327.795 186.88C328.401 184.65 329.121 182.453 329.953 180.298C331.197 180.704 332.404 181.212 333.564 181.817C339.389 184.839 340.732 186.747 340.748 186.767C340.778 186.812 340.819 186.849 340.867 186.875C340.916 186.9 340.97 186.912 341.024 186.91C341.088 186.91 341.15 186.891 341.203 186.855C341.238 186.832 341.269 186.801 341.292 186.766C341.316 186.731 341.332 186.691 341.341 186.65C341.349 186.608 341.349 186.565 341.34 186.524C341.332 186.482 341.315 186.443 341.291 186.408C341.239 186.325 339.888 184.366 333.87 181.242C332.688 180.626 331.458 180.106 330.193 179.687C331.847 175.332 333.837 170.81 334.852 169.219C335.042 168.936 335.271 168.681 335.533 168.462C338.22 169.584 341.482 171.346 343.105 173.746C343.136 173.791 343.177 173.828 343.225 173.852C343.273 173.877 343.327 173.889 343.381 173.887C343.446 173.888 343.509 173.869 343.563 173.832C343.633 173.784 343.682 173.71 343.698 173.626C343.714 173.542 343.696 173.455 343.648 173.384C341.994 170.943 338.843 169.164 336.156 168.007C338.711 166.349 343.373 165.606 343.431 165.598C343.474 165.594 343.517 165.581 343.555 165.56C343.594 165.539 343.627 165.51 343.654 165.475C343.681 165.441 343.701 165.401 343.712 165.358C343.723 165.316 343.726 165.271 343.719 165.228C343.712 165.184 343.697 165.143 343.674 165.105C343.651 165.068 343.62 165.036 343.584 165.011C343.548 164.986 343.507 164.968 343.464 164.96C343.421 164.951 343.377 164.951 343.334 164.96C343.083 164.999 338.063 165.789 335.455 167.722C334.149 167.19 332.81 166.739 331.447 166.374C331.405 166.359 331.36 166.354 331.315 166.357C331.271 166.361 331.227 166.373 331.188 166.395C331.149 166.416 331.114 166.445 331.086 166.481C331.059 166.516 331.039 166.557 331.028 166.6C331.017 166.644 331.015 166.689 331.023 166.733C331.03 166.777 331.047 166.82 331.072 166.857C331.096 166.895 331.128 166.926 331.166 166.951C331.204 166.975 331.246 166.991 331.29 166.998C332.505 167.336 333.701 167.738 334.874 168.203C334.666 168.407 334.481 168.634 334.322 168.879C333.291 170.495 331.271 175.089 329.592 179.505C325.826 178.4 323.304 178.721 323.163 178.743C323.084 178.76 323.014 178.807 322.968 178.874C322.921 178.941 322.902 179.023 322.913 179.104C322.925 179.185 322.966 179.258 323.03 179.309C323.093 179.361 323.173 179.386 323.254 179.381L323.232 179.384Z" fill="#B2386A"/>
<path d="M366.876 205.872C366.794 205.85 366.706 205.861 366.632 205.904C366.558 205.946 366.504 206.016 366.482 206.098C366.449 206.223 365.142 211.02 362.989 217.928C362.214 215.549 361.01 213.332 359.436 211.388C362.304 201.65 364.515 191.729 366.052 181.693C366.058 181.651 366.055 181.608 366.044 181.567C366.034 181.526 366.015 181.487 365.989 181.453C365.964 181.419 365.932 181.391 365.895 181.369C365.858 181.348 365.818 181.334 365.776 181.328C365.734 181.322 365.691 181.325 365.65 181.336C365.609 181.346 365.571 181.365 365.537 181.391C365.503 181.416 365.475 181.448 365.453 181.485C365.432 181.522 365.418 181.562 365.412 181.604C363.909 191.462 361.753 201.209 358.956 210.78C355.334 206.455 350.275 204.447 346.923 203.546C352.676 187.004 351.885 172.824 351.885 172.669C351.879 172.584 351.839 172.504 351.776 172.448C351.712 172.391 351.629 172.361 351.543 172.365C351.458 172.371 351.379 172.41 351.322 172.474C351.266 172.538 351.238 172.622 351.243 172.708C351.243 172.862 352.037 186.949 346.306 203.383C345.354 203.144 344.388 202.965 343.414 202.847C343.329 202.841 343.244 202.867 343.179 202.922C343.114 202.977 343.072 203.055 343.064 203.14C343.06 203.183 343.064 203.225 343.076 203.266C343.089 203.307 343.109 203.344 343.136 203.377C343.164 203.41 343.197 203.437 343.235 203.456C343.272 203.476 343.314 203.488 343.356 203.491C344.276 203.601 345.189 203.768 346.088 203.994C345.516 205.599 344.88 207.219 344.18 208.852C342.153 213.487 339.772 217.957 337.057 222.223C335.549 221.118 333.939 220.16 332.249 219.362C332.171 219.329 332.082 219.328 332.003 219.36C331.924 219.392 331.861 219.455 331.827 219.533C331.811 219.572 331.802 219.614 331.801 219.656C331.8 219.698 331.808 219.74 331.824 219.78C331.839 219.819 331.863 219.855 331.892 219.885C331.922 219.915 331.957 219.939 331.996 219.956C333.654 220.74 335.233 221.682 336.712 222.768C333.288 228.104 329.477 233.182 325.311 237.959C322.975 236.402 320.519 235.036 317.964 233.874C317.925 233.854 317.882 233.842 317.837 233.84C317.793 233.837 317.749 233.844 317.708 233.859C317.666 233.874 317.628 233.898 317.596 233.928C317.564 233.959 317.539 233.996 317.522 234.036C317.504 234.077 317.496 234.121 317.496 234.165C317.497 234.21 317.506 234.253 317.524 234.294C317.542 234.334 317.568 234.371 317.601 234.4C317.633 234.43 317.671 234.453 317.713 234.468C320.203 235.603 322.6 236.934 324.881 238.448C322.838 240.765 321.52 242.077 321.476 242.122C321.431 242.167 321.4 242.224 321.387 242.287C321.375 242.349 321.381 242.414 321.405 242.473C321.429 242.532 321.47 242.583 321.523 242.619C321.576 242.654 321.638 242.674 321.702 242.674C321.744 242.674 321.786 242.666 321.825 242.65C321.864 242.634 321.899 242.61 321.928 242.58C321.972 242.536 323.329 241.185 325.424 238.807C329.512 241.569 334.311 245.588 337.41 250.789C333.093 255.239 329.892 257.368 329.826 257.418C329.753 257.465 329.701 257.539 329.683 257.624C329.664 257.709 329.68 257.798 329.727 257.871C329.774 257.944 329.848 257.996 329.932 258.014C330.017 258.033 330.106 258.017 330.179 257.97C330.245 257.926 333.432 255.81 337.743 251.386C337.895 251.662 338.044 251.938 338.184 252.214C341.435 258.537 341.242 265.008 340.417 269.538C335.011 277.501 332.001 279.31 331.963 279.335C331.902 279.371 331.854 279.425 331.827 279.49C331.8 279.555 331.795 279.628 331.813 279.696C331.831 279.764 331.871 279.825 331.926 279.868C331.981 279.912 332.049 279.936 332.12 279.937C332.176 279.937 332.231 279.923 332.28 279.896C332.442 279.805 335.158 278.194 340.075 271.192C339.735 272.703 339.265 274.182 338.67 275.612C338.634 275.689 338.63 275.778 338.66 275.858C338.689 275.939 338.749 276.004 338.827 276.04C338.869 276.059 338.915 276.07 338.962 276.07C339.023 276.07 339.083 276.052 339.135 276.019C339.187 275.985 339.228 275.938 339.254 275.882C340.061 273.933 340.654 271.901 341.021 269.822C343.066 266.784 345.451 262.89 348.153 257.868C353.917 247.168 359.334 231.695 362.89 220.494C363.165 222.525 362.857 223.767 362.848 223.792C362.827 223.875 362.838 223.963 362.881 224.037C362.924 224.111 362.995 224.165 363.077 224.187C363.105 224.191 363.133 224.191 363.16 224.187C363.231 224.188 363.3 224.165 363.356 224.122C363.413 224.079 363.453 224.018 363.471 223.95C363.507 223.817 363.973 221.978 363.323 219.119C365.658 211.681 367.088 206.433 367.124 206.3C367.141 206.256 367.147 206.208 367.143 206.161C367.139 206.114 367.125 206.068 367.101 206.027C367.077 205.986 367.045 205.951 367.006 205.924C366.967 205.897 366.923 205.88 366.876 205.872ZM344.748 209.109C345.468 207.452 346.117 205.8 346.694 204.154C350.002 205.032 355.028 207.015 358.573 211.335L358.722 211.523C357.035 217.263 354.968 222.885 352.536 228.35C351.265 231.148 349.84 233.873 348.266 236.512L348.153 236.197C345.672 229.692 341.142 225.276 337.556 222.602C340.3 218.299 342.705 213.787 344.748 209.109ZM325.84 238.313C329.997 233.542 333.801 228.474 337.222 223.149C340.726 225.767 345.128 230.084 347.56 236.432C347.662 236.708 347.756 236.959 347.836 237.224C344.978 241.923 341.632 246.305 337.854 250.297C334.714 245.105 329.925 241.08 325.84 238.313ZM338.75 251.88C338.576 251.54 338.391 251.206 338.198 250.875C341.942 246.946 345.268 242.638 348.122 238.02C351.593 248.814 347.662 257.354 347.571 257.528C345.228 261.881 343.119 265.392 341.264 268.215C341.878 263.699 341.746 257.727 338.738 251.88H338.75ZM349.393 253.971C350.69 248.445 350.403 242.666 348.566 237.296C350.256 234.496 351.78 231.599 353.131 228.62C355.508 223.268 357.534 217.765 359.196 212.147C361.181 214.782 362.157 217.183 362.609 219.105C359.447 229.198 354.631 243.224 349.382 253.971H349.393Z" fill="#B2386A"/>
<path d="M304.834 137.187C304.834 137.187 298.64 149.235 302.725 153.98C306.811 158.726 313.065 158.496 315.866 154.809C318.667 151.122 320.666 145.484 320.553 145.117C320.44 144.75 304.834 137.187 304.834 137.187Z" fill="#0F8D45"/>
<path d="M388.508 176.044C386.49 173.774 384.971 171.73 383.854 169.655C387.675 158.411 392.99 139.499 389.075 130.657C388.124 128.511 386.663 127.067 384.731 126.36C380.668 124.874 377.227 122.471 374.385 119.791C372.546 114.927 368.872 109.572 364.144 105.221C363.968 104.829 363.868 104.603 363.868 104.586L363.568 104.702C356.908 98.783 347.579 102.216 347.579 102.216C347.579 102.216 346.827 101.357 338.449 102.216C330.071 103.075 324.037 122.683 324.941 121.656C326.36 120.023 328.112 118.716 330.08 117.822C330.08 117.822 331.797 120.189 332.872 121.156C333.63 121.841 333.371 119.25 333.148 117.67C333.572 120.117 334.868 125.981 338.049 129.981C342.159 135.146 345.327 133.641 348.762 135.577C352.197 137.513 351.124 142.25 347.689 145.048C344.255 147.846 347.474 153.442 350.275 156.171C353.076 158.9 347.044 159.469 347.877 167.418C348.709 175.367 357.784 171.52 356.282 177.978C354.78 184.435 350.912 188.092 353.489 196.055C356.067 204.018 365.947 197.779 367.879 203.59C369.812 209.402 375.615 211.123 375.615 211.123C386.112 221.196 396.24 184.747 388.508 176.044ZM375.601 124.611C375.461 123.406 375.201 122.218 374.826 121.065C377.658 123.621 380.943 125.622 384.51 126.965C386.272 127.608 387.609 128.939 388.485 130.92C392.196 139.297 387.182 157.571 383.427 168.818C380.706 163.184 380.863 157.063 382.225 145.341C384.157 128.688 375.601 124.611 375.601 124.611Z" fill="#0F8D45"/>
</svg>
